<svg width="220" height="58" viewBox="0 0 220 58" fill="none" xmlns="http://www.w3.org/2000/svg">
<path fill-rule="evenodd" clip-rule="evenodd" d="M34.0108 1.58788C31.8921 -0.529904 28.4578 -0.529209 26.3401 1.58946L8.66551 19.2713L8.65045 19.2669L8.5946 19.2729C8.6176 19.2839 8.64018 19.2948 8.66231 19.3059C5.56181 19.6307 4.24632 20.5624 4.23143 21.7589C4.23668 22.204 4.41929 22.6847 4.75472 23.1837L4.73859 23.1999C7.55726 27.4511 21.5208 33.0591 31.3997 29.2595C23.9958 32.9614 6.55954 33.6951 1.43822 26.5075C0.326034 27.7106 -0.1393 29.2918 0.0359381 30.8113C1.38885 38.2682 16.5145 40.3025 31.6402 29.4985L34.9133 32.7716C30.8404 36.956 24.8242 61.2617 33.7636 57.5507C33.9757 57.4067 34.1557 57.2779 34.4005 57.0927L34.7989 56.7165C34.7759 56.7222 34.7531 56.7276 34.7304 56.733L58.6722 34.1305C60.8952 32.0318 60.9455 28.5116 58.7832 26.3502L34.0108 1.58788ZM31.4036 8.9538L32.2219 5.68068L33.0401 8.9538L35.495 9.7721L33.0401 10.5904L32.2219 13.8635L31.4036 10.5904L28.9487 9.7721L31.4036 8.9538ZM21.2753 19.6388L21.8208 17.4567L22.3663 19.6388L24.0029 20.1843L22.3663 20.7298L21.8208 22.9119L21.2753 20.7298L19.6388 20.1843L21.2753 19.6388ZM40.275 38.0446L39.7295 40.2266L38.093 40.7723L39.7295 41.3178L40.275 43.4998L40.8205 41.3178L42.4571 40.7723L40.8205 40.2266L40.275 38.0446Z" fill="#4845D2"/>
<path d="M74.141 13.7166H69.0603V36.6417H83.1253V32.1496H74.141V13.7166Z" fill="#4845D2"/>
<path d="M83.6105 28.8654C83.6105 33.7603 86.8944 37.0132 91.8511 37.0132C96.777 37.0132 100.061 33.7603 100.061 28.8654C100.061 23.9705 96.777 20.6868 91.8511 20.6868C86.8944 20.6868 83.6105 23.9705 83.6105 28.8654ZM88.4124 28.8345C88.4124 26.511 89.7755 24.962 91.8511 24.962C93.8958 24.962 95.259 26.511 95.259 28.8345C95.259 31.189 93.8958 32.738 91.8511 32.738C89.7755 32.738 88.4124 31.189 88.4124 28.8345Z" fill="#4845D2"/>
<path d="M100.828 28.6179C100.828 33.2957 103.864 36.4557 108.17 36.4557C110.246 36.4557 112.043 35.7122 112.941 34.504V36.6416C112.941 38.7792 111.609 40.2044 109.255 40.2044C107.148 40.2044 105.692 39.213 105.599 37.4471H100.766C101.2 41.6914 104.484 44.5416 108.976 44.5416C114.274 44.5416 117.619 41.1028 117.619 35.6502V21.1516H113.313L113.065 22.7315C112.198 21.4614 110.37 20.625 108.263 20.625C103.926 20.625 100.828 23.8779 100.828 28.6179ZM105.661 28.4939C105.661 26.2634 107.148 24.7762 109.038 24.7762C111.237 24.7762 112.848 26.2323 112.848 28.4939C112.848 30.7555 111.269 32.3044 109.069 32.3044C107.179 32.3044 105.661 30.7555 105.661 28.4939Z" fill="#4845D2"/>
<path d="M119.01 28.8654C119.01 33.7603 122.294 37.0132 127.251 37.0132C132.176 37.0132 135.46 33.7603 135.46 28.8654C135.46 23.9705 132.176 20.6868 127.251 20.6868C122.294 20.6868 119.01 23.9705 119.01 28.8654ZM123.812 28.8345C123.812 26.511 125.175 24.962 127.251 24.962C129.295 24.962 130.658 26.511 130.658 28.8345C130.658 31.189 129.295 32.738 127.251 32.738C125.175 32.738 123.812 31.189 123.812 28.8345Z" fill="#4845D2"/>
<path d="M139.574 18.7352C141.06 18.7352 142.269 17.5271 142.269 16.009C142.269 14.491 141.06 13.3137 139.574 13.3137C138.056 13.3137 136.847 14.491 136.847 16.009C136.847 17.5271 138.056 18.7352 139.574 18.7352ZM137.157 36.6417H141.959V21.1517H137.157V36.6417Z" fill="#4845D2"/>
<path d="M144.754 44.0771H149.463V35.093C150.362 36.2702 152.406 37.0757 154.544 37.0757C159.16 37.0757 161.948 33.544 161.823 28.6491C161.7 23.6613 158.819 20.6562 154.513 20.6562C152.313 20.6562 150.238 21.6166 149.37 23.0418L149.122 21.152H144.754V44.0771ZM149.556 28.8969C149.556 26.5735 151.105 25.0245 153.336 25.0245C155.597 25.0245 157.022 26.6044 157.022 28.8969C157.022 31.1895 155.597 32.7694 153.336 32.7694C151.105 32.7694 149.556 31.2204 149.556 28.8969Z" fill="#4845D2"/>
<path d="M162.333 31.7471C162.456 34.8761 164.935 37.0446 168.839 37.0446C172.587 37.0446 175.19 35.0619 175.19 31.871C175.19 29.5785 173.826 28.0605 171.285 27.4409L168.528 26.7593C167.537 26.5115 166.918 26.2637 166.918 25.4582C166.918 24.6527 167.568 24.126 168.528 24.126C169.613 24.126 170.325 24.8386 170.294 25.892H174.602C174.477 22.67 172.03 20.6562 168.622 20.6562C165.182 20.6562 162.612 22.7009 162.612 25.7989C162.612 27.8747 163.758 29.5785 166.825 30.384L169.551 31.0965C170.356 31.3133 170.697 31.6851 170.697 32.2119C170.697 32.9863 169.985 33.482 168.776 33.482C167.382 33.482 166.639 32.8314 166.639 31.7471H162.333Z" fill="#4845D2"/>
<path d="M182.492 37.0443C184.382 37.0443 186.272 36.1769 187.232 34.9067L187.543 36.6416H192.034V21.1516H187.263V29.2064C187.263 31.5298 186.581 32.8001 184.382 32.8001C182.678 32.8001 181.563 32.0256 181.563 29.1445V21.1516H176.791V30.8792C176.791 34.566 178.837 37.0443 182.492 37.0443Z" fill="#4845D2"/>
<path d="M199.6 36.6416V28.1841C199.6 25.5817 200.994 24.8382 202.357 24.8382C203.875 24.8382 204.866 25.7677 204.866 27.6884V36.6416H209.575V28.1841C209.575 25.5508 210.938 24.8073 212.301 24.8073C213.819 24.8073 214.842 25.7366 214.842 27.6884V36.6416H219.49V26.5112C219.49 22.9795 217.63 20.625 213.633 20.625C211.404 20.625 209.575 21.7093 208.77 23.3821C207.841 21.7093 206.229 20.625 203.658 20.625C201.955 20.625 200.375 21.3994 199.445 22.6386L199.26 21.1516H194.798V36.6416H199.6Z" fill="#4845D2"/>
<path fill-rule="evenodd" clip-rule="evenodd" d="M60.5159 3.75366C55.3975 3.75366 50.5435 6.02716 47.2667 9.95926L35.6092 23.9484L42.3407 13.851L31.1669 18.6397C29.7479 19.2479 29.3919 21.0968 30.4834 22.1885L34.0792 25.7841L32.2433 27.9873L36.2824 32.0262L38.4853 30.1902L42.0812 33.7861C43.1727 34.8776 45.0217 34.5216 45.6297 33.1027L50.4185 21.9289L40.3213 28.6604L54.3103 17.0028C58.2424 13.7261 60.5159 8.8721 60.5159 3.75366ZM49.4089 14.861C50.5242 15.9762 52.3324 15.9762 53.4478 14.861C54.5631 13.7456 54.5631 11.9373 53.4478 10.8221C52.3324 9.70668 50.5242 9.70668 49.4089 10.8221C48.2935 11.9373 48.2935 13.7456 49.4089 14.861Z" fill="#A3A2FF"/>
<path opacity="0.6" d="M1.30841 26.3191C3.98266 35.4814 20.2415 35.0037 31.3966 29.2606C23.927 32.9932 6.25708 33.706 1.30841 26.3191Z" fill="#424242"/>
<path opacity="0.6" d="M33.7636 57.5505C26.231 60.6774 29.3173 43.9119 32.912 36.0542C30.2918 43.0385 28.055 58.4348 34.7989 56.7164L34.4004 57.0925C34.1556 57.2777 33.9756 57.4065 33.7636 57.5505Z" fill="#424242"/>
</svg>
