<svg width="288" height="55" viewBox="0 0 288 55" fill="none" xmlns="http://www.w3.org/2000/svg">
<path d="M166.522 40.3491H172.895V16.3115H166.522V40.3491ZM166.522 12.563H172.895V6.84644H166.522V12.563Z" fill="#636363"/>
<path d="M177.002 48.2208H183.374V37.6311H183.467C184.826 39.6929 187.029 41.0517 190.402 41.0517C196.587 41.0517 200.805 36.1318 200.805 28.3536C200.805 20.8564 196.728 15.6553 190.355 15.6553C187.075 15.6553 184.826 17.2016 183.28 19.3101H183.139V16.3113H177.002V48.2208ZM189.043 35.7569C185.248 35.7569 183.233 32.8987 183.233 28.5409C183.233 24.2301 184.826 20.8096 188.809 20.8096C192.745 20.8096 194.338 23.9958 194.338 28.5409C194.338 33.086 192.277 35.7569 189.043 35.7569Z" fill="#636363"/>
<path d="M213.516 41.0517C219.514 41.0517 223.637 38.1466 223.637 33.3203C223.637 27.6976 219.186 26.573 215.156 25.7296C211.735 25.0267 208.549 24.8392 208.549 22.7776C208.549 21.0439 210.189 20.1068 212.673 20.1068C215.391 20.1068 217.031 21.0439 217.311 23.621H223.074C222.607 18.7948 219.092 15.6553 212.767 15.6553C207.284 15.6553 202.973 18.1388 202.973 23.3399C202.973 28.5878 207.191 29.7592 211.501 30.6027C214.781 31.2587 217.826 31.4929 217.826 33.7889C217.826 35.4758 216.234 36.5535 213.423 36.5535C210.564 36.5535 208.596 35.3351 208.175 32.5707H202.271C202.645 37.678 206.535 41.0517 213.516 41.0517Z" fill="#636363"/>
<path d="M247.831 40.3491V16.3115H241.459V30.1812C241.459 33.3674 239.631 35.6165 236.633 35.6165C233.915 35.6165 232.651 34.0703 232.651 31.2589V16.3115H226.324V32.3365C226.324 37.5845 229.323 41.0051 234.665 41.0051C238.039 41.0051 239.913 39.74 241.553 37.5378H241.694V40.3491H247.831Z" fill="#636363"/>
<path d="M251.953 40.3489H258.326V26.3856C258.326 23.1992 260.06 21.1376 262.638 21.1376C264.98 21.1376 266.339 22.5432 266.339 25.261V40.3489H272.711V26.3856C272.711 23.1992 274.351 21.1376 277.022 21.1376C279.366 21.1376 280.724 22.5432 280.724 25.261V40.3489H287.097V24.1832C287.097 18.9353 284.238 15.6553 279.177 15.6553C276.132 15.6553 273.601 17.2484 271.961 19.8724H271.868C270.697 17.3421 268.26 15.6553 265.214 15.6553C261.887 15.6553 259.545 17.3421 258.233 19.5444H258.092V16.3113H251.953V40.3489Z" fill="#636363"/>
<path d="M0.431152 40.3491H6.80367V6.84644H0.431152V40.3491Z" fill="#636363"/>
<path d="M22.3855 41.0517C29.8356 41.0517 34.943 35.5226 34.943 28.3536C34.943 21.1844 29.8356 15.6553 22.3855 15.6553C14.9351 15.6553 9.82776 21.1844 9.82776 28.3536C9.82776 35.5226 14.9351 41.0517 22.3855 41.0517ZM22.3855 36.1786C18.4495 36.1786 16.294 33.0392 16.294 28.3536C16.294 23.6678 18.4495 20.4816 22.3855 20.4816C26.2746 20.4816 28.4768 23.6678 28.4768 28.3536C28.4768 33.0392 26.2746 36.1786 22.3855 36.1786Z" fill="#636363"/>
<path d="M48.4949 48.5488C52.056 48.5488 55.1486 47.7054 57.1633 45.8311C58.9439 44.1911 60.0217 41.8951 60.0217 38.5215V16.3113H53.8835V18.8416H53.7897C52.3371 16.8268 50.1349 15.6553 47.136 15.6553C41.0447 15.6553 36.7338 20.2472 36.7338 27.4163C36.7338 34.6791 41.9818 38.8962 47.3235 38.8962C50.3691 38.8962 52.1966 37.678 53.6022 36.0849H53.7428V38.7089C53.7428 41.9888 52.0091 43.7226 48.4011 43.7226C45.4491 43.7226 44.0903 42.5511 43.5749 41.0517H37.2492C37.9052 45.7375 41.9349 48.5488 48.4949 48.5488ZM48.4011 33.7889C45.1211 33.7889 42.9658 31.3992 42.9658 27.3227C42.9658 23.293 45.1211 20.7627 48.3542 20.7627C52.1966 20.7627 54.0708 23.7616 54.0708 27.2758C54.0708 30.8369 52.4308 33.7889 48.4011 33.7889Z" fill="#636363"/>
<path d="M75.5111 41.0517C82.9613 41.0517 88.0687 35.5226 88.0687 28.3536C88.0687 21.1844 82.9613 15.6553 75.5111 15.6553C68.0609 15.6553 62.9534 21.1844 62.9534 28.3536C62.9534 35.5226 68.0609 41.0517 75.5111 41.0517ZM75.5111 36.1786C71.5751 36.1786 69.4197 33.0392 69.4197 28.3536C69.4197 23.6678 71.5751 20.4816 75.5111 20.4816C79.4002 20.4816 81.6025 23.6678 81.6025 28.3536C81.6025 33.0392 79.4002 36.1786 75.5111 36.1786Z" fill="#636363"/>
<path fill-rule="evenodd" clip-rule="evenodd" d="M126.715 0C141.81 0 154.049 12.2375 154.049 27.3331C154.049 42.4288 141.81 54.6663 126.715 54.6663C111.619 54.6663 99.3819 42.4288 99.3819 27.3331C99.3819 12.2375 111.619 0 126.715 0ZM125.727 2.04533C122.609 2.48416 119.64 4.98978 117.335 9.18038C116.666 10.3959 116.063 11.7388 115.537 13.1888C118.671 12.4013 122.114 11.937 125.727 11.8651V2.04533ZM113.227 13.8453C113.881 11.7937 114.681 9.90608 115.603 8.22817C116.746 6.15076 118.102 4.35684 119.63 2.979C111.322 5.39178 104.774 11.9402 102.361 20.248C103.739 18.7202 105.533 17.3642 107.61 16.2217C109.288 15.2988 111.175 14.499 113.227 13.8453ZM112.571 16.1554C111.783 19.2894 111.319 22.7322 111.247 26.3452H101.427C101.866 23.2269 104.372 20.2577 108.562 17.953C109.778 17.2844 111.121 16.6811 112.571 16.1554ZM113.223 26.3452C113.305 22.4022 113.873 18.7005 114.812 15.4298C118.082 14.4907 121.784 13.923 125.727 13.8414V18.1093C124.256 21.875 121.256 24.8748 117.49 26.3452H113.223ZM111.247 28.3211H101.427C101.866 31.4394 104.372 34.4085 108.562 36.7133C109.778 37.3819 111.121 37.9851 112.571 38.5109C111.783 35.3769 111.319 31.9341 111.247 28.3211ZM114.812 39.2365C113.873 35.9658 113.305 32.264 113.223 28.3211H117.49C121.256 29.7915 124.256 32.7913 125.727 36.557V40.8249C121.784 40.7433 118.082 40.1756 114.812 39.2365ZM113.227 40.821C111.175 40.1673 109.288 39.3675 107.61 38.4446C105.533 37.3021 103.739 35.9461 102.361 34.4183C104.774 42.7261 111.322 49.2746 119.63 51.6873C118.102 50.3094 116.746 48.5155 115.603 46.4381C114.681 44.7602 113.881 42.8726 113.227 40.821ZM125.727 52.621C122.609 52.1821 119.64 49.6765 117.335 45.4859C116.666 44.2704 116.063 42.9274 115.537 41.4775C118.671 42.265 122.114 42.7294 125.727 42.8011V52.621ZM133.8 51.6873C135.328 50.3094 136.684 48.5155 137.826 46.4381C138.749 44.7602 139.55 42.8726 140.203 40.821C142.254 40.1673 144.142 39.3675 145.82 38.4446C147.897 37.3021 149.692 35.9461 151.069 34.4183C148.656 42.7261 142.108 49.2746 133.8 51.6873ZM137.893 41.4775C137.367 42.9274 136.763 44.2704 136.095 45.4859C133.79 49.6765 130.821 52.1821 127.703 52.621V42.8011C131.316 42.7294 134.759 42.265 137.893 41.4775ZM140.859 38.5109C142.309 37.9851 143.652 37.3819 144.867 36.7133C149.059 34.4086 151.564 31.4394 152.003 28.3211H142.183C142.111 31.9341 141.646 35.3769 140.859 38.5109ZM140.207 28.3211C140.125 32.264 139.558 35.9658 138.618 39.2365C135.347 40.1756 131.646 40.7433 127.703 40.8249V36.5601C129.173 32.7931 132.174 29.7919 135.941 28.3211H140.207ZM142.183 26.3452H152.003C151.564 23.2269 149.059 20.2577 144.867 17.953C143.652 17.2844 142.309 16.6811 140.859 16.1554C141.646 19.2894 142.111 22.7322 142.183 26.3452ZM138.618 15.4298C139.558 18.7005 140.125 22.4022 140.207 26.3452H135.941C132.174 24.8744 129.173 21.8732 127.703 18.1062V13.8414C131.646 13.923 135.347 14.4907 138.618 15.4298ZM140.203 13.8453C142.254 14.499 144.142 15.2988 145.82 16.2217C147.897 17.3642 149.692 18.7202 151.069 20.248C148.656 11.9402 142.108 5.39178 133.8 2.979C135.328 4.35684 136.684 6.15076 137.826 8.22817C138.749 9.90608 139.55 11.7937 140.203 13.8453ZM127.703 2.04533C130.821 2.48416 133.79 4.98978 136.095 9.18038C136.763 10.3959 137.367 11.7388 137.893 13.1888C134.759 12.4013 131.316 11.937 127.703 11.8651V2.04533Z" fill="#636363"/>
</svg>
