<svg width="255" height="50" viewBox="0 0 255 50" fill="none" xmlns="http://www.w3.org/2000/svg">
<path d="M76.7156 38.9304V13.083H81.5896V34.4995H93.4056V38.9304H76.7156Z" fill="#3A5088"/>
<path d="M103.929 39.4471C102.108 39.4471 100.47 39.0778 99.0182 38.3392C97.5657 37.6008 96.421 36.53 95.5841 35.1269C94.7472 33.7237 94.3287 32.0375 94.3287 30.0681V29.4773C94.3287 27.508 94.7472 25.8217 95.5841 24.4186C96.421 23.0154 97.5657 21.9446 99.0182 21.206C100.47 20.4677 102.108 20.0984 103.929 20.0984C105.751 20.0984 107.388 20.4677 108.84 21.206C110.292 21.9446 111.437 23.0154 112.274 24.4186C113.111 25.8217 113.53 27.508 113.53 29.4773V30.0681C113.53 32.0375 113.111 33.7237 112.274 35.1269C111.437 36.53 110.292 37.6008 108.84 38.3392C107.388 39.0778 105.751 39.4471 103.929 39.4471ZM103.929 35.3114C105.357 35.3114 106.538 34.856 107.474 33.9453C108.409 33.0098 108.877 31.6804 108.877 29.9574V29.5881C108.877 27.8649 108.409 26.5479 107.474 25.637C106.563 24.7017 105.381 24.2339 103.929 24.2339C102.501 24.2339 101.32 24.7017 100.384 25.637C99.4488 26.5479 98.9812 27.8649 98.9812 29.5881V29.9574C98.9812 31.6804 99.4488 33.0098 100.384 33.9453C101.32 34.856 102.501 35.3114 103.929 35.3114Z" fill="#3A5088"/>
<path d="M115.276 29.8466V29.2558C115.276 27.3356 115.658 25.6986 116.421 24.3446C117.184 22.9662 118.193 21.92 119.449 21.206C120.729 20.4677 122.12 20.0984 123.621 20.0984C125.295 20.0984 126.563 20.3937 127.424 20.9845C128.286 21.5753 128.914 22.1907 129.308 22.8307H129.972V20.6152H134.551V42.1794C134.551 43.4349 134.182 44.4318 133.443 45.1704C132.705 45.9335 131.72 46.315 130.489 46.315H118.23V42.2533H128.865C129.554 42.2533 129.898 41.8841 129.898 41.1455V36.3823H129.234C128.988 36.7761 128.643 37.1822 128.2 37.6008C127.757 37.9946 127.166 38.327 126.427 38.5977C125.689 38.8685 124.754 39.004 123.621 39.004C122.12 39.004 120.729 38.6469 119.449 37.9331C118.193 37.1946 117.184 36.1484 116.421 34.7944C115.658 33.416 115.276 31.7666 115.276 29.8466ZM124.951 34.9421C126.378 34.9421 127.572 34.4867 128.532 33.576C129.492 32.6651 129.972 31.3851 129.972 29.7358V29.3666C129.972 27.6925 129.492 26.4125 128.532 25.5262C127.597 24.6155 126.403 24.1601 124.951 24.1601C123.523 24.1601 122.329 24.6155 121.369 25.5262C120.409 26.4125 119.929 27.6925 119.929 29.3666V29.7358C119.929 31.3851 120.409 32.6651 121.369 33.576C122.329 34.4867 123.523 34.9421 124.951 34.9421Z" fill="#3A5088"/>
<path d="M146.762 39.4471C144.94 39.4471 143.303 39.0778 141.851 38.3392C140.399 37.6008 139.254 36.53 138.417 35.1269C137.58 33.7237 137.161 32.0375 137.161 30.0681V29.4773C137.161 27.508 137.58 25.8217 138.417 24.4186C139.254 23.0154 140.399 21.9446 141.851 21.206C143.303 20.4677 144.94 20.0984 146.762 20.0984C148.584 20.0984 150.221 20.4677 151.673 21.206C153.125 21.9446 154.27 23.0154 155.107 24.4186C155.944 25.8217 156.362 27.508 156.362 29.4773V30.0681C156.362 32.0375 155.944 33.7237 155.107 35.1269C154.27 36.53 153.125 37.6008 151.673 38.3392C150.221 39.0778 148.584 39.4471 146.762 39.4471ZM146.762 35.3114C148.19 35.3114 149.371 34.856 150.307 33.9453C151.242 33.0098 151.71 31.6804 151.71 29.9574V29.5881C151.71 27.8649 151.242 26.5479 150.307 25.637C149.396 24.7017 148.214 24.2339 146.762 24.2339C145.334 24.2339 144.153 24.7017 143.217 25.637C142.282 26.5479 141.814 27.8649 141.814 29.5881V29.9574C141.814 31.6804 142.282 33.0098 143.217 33.9453C144.153 34.856 145.334 35.3114 146.762 35.3114Z" fill="#3A5088"/>
<path d="M158.995 38.9306V20.6158H163.648V38.9306H158.995ZM161.322 18.4742C160.484 18.4742 159.771 18.2033 159.179 17.6617C158.614 17.1203 158.331 16.4063 158.331 15.5202C158.331 14.634 158.614 13.9201 159.179 13.3785C159.771 12.837 160.484 12.5662 161.322 12.5662C162.183 12.5662 162.898 12.837 163.463 13.3785C164.029 13.9201 164.313 14.634 164.313 15.5202C164.313 16.4063 164.029 17.1203 163.463 17.6617C162.898 18.2033 162.183 18.4742 161.322 18.4742Z" fill="#3A5088"/>
<path d="M167.143 46.315V20.6152H171.721V22.8307H172.386C172.803 22.1169 173.455 21.4892 174.343 20.9475C175.228 20.3815 176.496 20.0984 178.146 20.0984C179.622 20.0984 180.988 20.4677 182.244 21.206C183.501 21.92 184.51 22.9785 185.272 24.3816C186.035 25.7847 186.417 27.4834 186.417 29.4773V30.0681C186.417 32.0621 186.035 33.7605 185.272 35.1637C184.51 36.5668 183.501 37.6377 182.244 38.3762C180.988 39.09 179.622 39.4471 178.146 39.4471C177.039 39.4471 176.102 39.3117 175.339 39.0408C174.601 38.7947 173.998 38.4746 173.53 38.0807C173.087 37.6623 172.73 37.2438 172.459 36.8253H171.794V46.315H167.143ZM176.742 35.3852C178.196 35.3852 179.389 34.9299 180.324 34.019C181.284 33.0836 181.764 31.7298 181.764 29.9574V29.5881C181.764 27.8157 181.284 26.4741 180.324 25.5632C179.363 24.6277 178.17 24.1601 176.742 24.1601C175.315 24.1601 174.12 24.6277 173.16 25.5632C172.2 26.4741 171.721 27.8157 171.721 29.5881V29.9574C171.721 31.7298 172.2 33.0836 173.16 34.019C174.12 34.9299 175.315 35.3852 176.742 35.3852Z" fill="#3A5088"/>
<path d="M196.634 39.4471C194.245 39.4471 192.289 38.93 190.762 37.8962C189.237 36.8623 188.313 35.3852 187.993 33.4652L192.276 32.3574C192.449 33.2191 192.731 33.8959 193.127 34.3883C193.544 34.8806 194.049 35.2376 194.64 35.4592C195.255 35.6561 195.92 35.7545 196.634 35.7545C197.717 35.7545 198.517 35.5699 199.033 35.2007C199.55 34.8068 199.809 34.3267 199.809 33.7605C199.809 33.1943 199.563 32.7636 199.071 32.4682C198.578 32.1482 197.79 31.8897 196.708 31.6928L195.674 31.5081C194.393 31.262 193.225 30.9297 192.166 30.5112C191.106 30.0681 190.257 29.4649 189.618 28.7018C188.978 27.9388 188.658 26.9541 188.658 25.7479C188.658 23.9262 189.323 22.5354 190.653 21.5753C191.981 20.5906 193.73 20.0984 195.896 20.0984C197.938 20.0984 199.638 20.5537 200.991 21.4646C202.345 22.3754 203.23 23.5693 203.649 25.0464L199.33 26.3756C199.133 25.4402 198.727 24.7755 198.111 24.3816C197.519 23.9877 196.781 23.7908 195.896 23.7908C195.009 23.7908 194.333 23.9509 193.864 24.2708C193.396 24.5663 193.163 24.9848 193.163 25.5262C193.163 26.117 193.409 26.5603 193.901 26.8556C194.393 27.1263 195.058 27.3356 195.896 27.4834L196.929 27.6679C198.308 27.9141 199.55 28.2465 200.658 28.665C201.791 29.0589 202.677 29.6373 203.318 30.4004C203.981 31.139 204.314 32.1482 204.314 33.4282C204.314 35.3484 203.613 36.8377 202.21 37.8962C200.831 38.93 198.973 39.4471 196.634 39.4471Z" fill="#3A5088"/>
<path d="M213.709 39.226C212.28 39.226 211.025 38.9059 209.941 38.2659C208.883 37.6013 208.059 36.6904 207.467 35.5334C206.877 34.3764 206.582 33.0472 206.582 31.5455V20.6157H211.235V31.1763C211.235 32.5548 211.566 33.5887 212.231 34.278C212.92 34.9672 213.893 35.3119 215.148 35.3119C216.576 35.3119 217.684 34.8442 218.471 33.9088C219.26 32.9487 219.653 31.6193 219.653 29.9209V20.6157H224.306V38.9305H219.726V36.5305H219.063C218.768 37.1459 218.212 37.7489 217.401 38.3397C216.589 38.9305 215.357 39.226 213.709 39.226Z" fill="#3A5088"/>
<path d="M227.821 38.9299V20.6151H232.399V22.6091H233.064C233.385 21.9937 233.915 21.4645 234.653 21.0214C235.391 20.5536 236.363 20.3198 237.569 20.3198C238.874 20.3198 239.921 20.5783 240.708 21.0952C241.495 21.5876 242.098 22.2398 242.517 23.0523H243.182C243.601 22.2646 244.192 21.6122 244.955 21.0952C245.718 20.5783 246.8 20.3198 248.203 20.3198C249.336 20.3198 250.358 20.566 251.269 21.0584C252.204 21.526 252.943 22.2522 253.485 23.2369C254.051 24.197 254.334 25.4154 254.334 26.8925V38.9299H249.681V27.2248C249.681 26.2155 249.422 25.4647 248.906 24.9723C248.389 24.4555 247.662 24.197 246.728 24.197C245.669 24.197 244.844 24.5415 244.254 25.2308C243.687 25.8954 243.405 26.8555 243.405 28.1109V38.9299H238.752V27.2248C238.752 26.2155 238.493 25.4647 237.976 24.9723C237.458 24.4555 236.733 24.197 235.797 24.197C234.738 24.197 233.913 24.5415 233.323 25.2308C232.756 25.8954 232.474 26.8555 232.474 28.1109V38.9299H227.821Z" fill="#3A5088"/>
<path d="M61.9703 25.084C61.9703 18.5551 59.3767 12.2936 54.76 7.677C50.1434 3.06039 43.882 0.466798 37.3531 0.466797C30.8243 0.466796 24.5628 3.06039 19.9462 7.677C15.3295 12.2936 12.7359 18.5551 12.7359 25.084H20.4289C22.9781 25.084 24.9662 22.9477 25.8999 20.5756C26.513 19.0182 27.4432 17.587 28.6496 16.3804C30.9579 14.0722 34.0887 12.7754 37.3531 12.7754C40.6175 12.7754 43.7483 14.0722 46.0566 16.3804C48.365 18.6888 49.6616 21.8196 49.6616 25.084H61.9703Z" fill="url(#paint0_linear_138_69)"/>
<path d="M47.7892 34.5042C49.0263 31.5175 49.6631 28.3164 49.6631 25.0837H61.9704C61.9704 38.6794 50.9488 49.7008 37.3532 49.7008C35.224 49.7008 33.1579 49.4305 31.1876 48.9224C32.3024 48.6352 33.3982 48.2694 34.4665 47.827C37.4532 46.5898 40.1669 44.7766 42.4529 42.4907C44.7388 40.2047 46.5522 37.491 47.7892 34.5042Z" fill="#FBCF8E"/>
<path d="M0.428711 25.0837C0.42871 28.3166 1.06545 31.5177 2.30258 34.5044C3.53971 37.4911 5.35299 40.2049 7.63891 42.4908C9.92482 44.7766 12.6386 46.59 15.6253 47.8271C18.6119 49.0643 21.8131 49.7009 25.0459 49.7009C28.2786 49.7009 31.4797 49.0643 34.4664 47.8271C37.4531 46.59 40.1669 44.7766 42.4528 42.4908C44.7388 40.2049 46.552 37.4911 47.7891 34.5044C49.0263 31.5177 49.6631 28.3166 49.6631 25.0837H41.9701C39.4209 25.0837 37.4328 27.22 36.4991 29.592C36.4726 29.6596 36.4453 29.7269 36.4175 29.7942C35.7989 31.2874 34.8923 32.6444 33.7493 33.7873C32.6064 34.9302 31.2494 35.8369 29.7562 36.4555C28.2629 37.0741 26.6623 37.3924 25.0459 37.3924C23.4295 37.3924 21.8289 37.0741 20.3356 36.4555C18.8422 35.8369 17.4854 34.9302 16.3424 33.7873C15.1994 32.6444 14.2928 31.2874 13.6742 29.7942C13.0557 28.3007 12.7373 26.7002 12.7373 25.0837H0.428711Z" fill="url(#paint1_linear_138_69)"/>
<path d="M0.431221 25.084C0.431221 11.4882 11.4527 0.466797 25.0483 0.466797C27.1769 0.466797 29.2425 0.736961 31.2126 1.24489C26.9853 2.3339 23.0856 4.53777 19.9462 7.67701C15.3296 12.2936 12.7361 18.5551 12.7361 25.084H0.431221Z" fill="#73E5E2"/>
<defs>
<linearGradient id="paint0_linear_138_69" x1="61.9703" y1="12.7754" x2="12.7359" y2="12.7754" gradientUnits="userSpaceOnUse">
<stop stop-color="#73E5E2"/>
<stop offset="1" stop-color="#394F87"/>
</linearGradient>
<linearGradient id="paint1_linear_138_69" x1="0.428713" y1="37.3924" x2="49.6631" y2="37.3924" gradientUnits="userSpaceOnUse">
<stop stop-color="#FBDC8E"/>
<stop offset="1" stop-color="#FB958E"/>
</linearGradient>
</defs>
</svg>
