<svg width="240" height="56" viewBox="0 0 240 56" fill="none" xmlns="http://www.w3.org/2000/svg">
<path d="M233.863 10.841L239.568 16.5845C239.767 16.7432 239.915 16.9574 239.991 17.2C240.108 18.6136 239.038 18.691 237.944 18.77C237.471 18.8041 236.994 18.8387 236.608 18.9819C234.689 19.5011 232.978 20.5977 231.705 22.1229C230.432 23.6481 229.66 25.5281 229.491 27.5076C229.368 27.7362 229.183 27.9244 228.954 28.0494C228.727 28.1746 228.469 28.2312 228.21 28.2128C227.909 28.1861 227.627 28.0545 227.414 27.8409L225.542 25.9557C225.555 26.0847 225.555 26.2125 225.555 26.3153V27.5588C225.555 27.6374 225.558 27.7131 225.549 27.7887C225.536 27.8734 225.508 27.9579 225.441 28.0459V28.1614C225.441 28.2203 225.447 28.2751 225.454 28.3307C225.468 28.4445 225.483 28.5618 225.441 28.7255C225.4 28.8782 225.396 29.0563 225.39 29.2152C225.389 29.3096 225.386 29.3974 225.376 29.469C225.363 29.5683 225.363 29.6744 225.355 29.7803C225.346 29.8795 225.33 29.9786 225.286 30.0715C225.226 30.2016 225.206 30.3259 225.2 30.4522C225.196 30.5126 225.196 30.5734 225.196 30.6357L225.12 31.0331L222.21 44.9048L221.979 45.9432L221.889 47.4561L220.607 54.0073L220.402 55.033H116.646L116.146 54.5329L116.056 54.9689H104.954L98.7745 48.751L99.3642 45.9432H95.877L93.7105 43.751C91.0216 45.709 87.7669 46.7353 84.4413 46.6741C80.8664 46.8147 77.3812 45.5331 74.7491 43.11L71.3773 39.7126L70.6465 43.1227C70.5568 43.6099 70.4414 44.0716 70.3132 44.5203L70.1978 44.9434L70.0055 45.5586C69.9897 45.6121 69.9682 45.6637 69.9414 45.7125C69.7505 46.2778 69.5237 46.8302 69.2619 47.3663C69.2688 47.3871 69.2688 47.4096 69.2619 47.4304C69.2283 47.5015 69.1898 47.57 69.1465 47.6356C68.9529 48.0186 68.7391 48.3909 68.5055 48.751C68.4622 48.8165 68.4236 48.8851 68.3901 48.9562L68.2491 49.1099C67.9357 49.5594 67.5931 49.9876 67.2234 50.392C67.122 50.4934 67.0206 50.5886 66.9176 50.6821C66.8123 50.7778 66.7055 50.8717 66.5952 50.9688L66.3132 51.2381C66.1354 51.3858 65.9535 51.5283 65.7678 51.6657C65.6146 51.779 65.4588 51.8886 65.3004 51.9945C62.6582 53.56 59.6105 54.3051 56.5441 54.1355C52.3133 54.1355 48.9287 52.9047 46.7877 50.751L40.7621 44.6869C38.3553 46.0489 35.63 46.7479 32.8647 46.7125C29.3006 46.8228 25.8365 45.5238 23.2238 43.0972L19.8521 39.6998L18.7623 44.9434L18.5443 45.9818H7.19828L0.993164 39.7253L1.31367 38.2126L8.13415 5.45638L8.33923 4.43076H19.7238L20.0187 4.71285V4.43076H96.7233L97.0054 4.71285V4.43076H108.108L114.313 10.6871L114.005 12.1871L113.672 13.8281H116.864L117.364 14.3282C118.769 13.505 120.364 13.063 121.992 13.0461C123.19 13.0225 124.378 13.2499 125.482 13.7136C126.587 14.1773 127.581 14.8669 128.403 15.7383L128.236 15.546L131.249 18.5845C133.082 15.1359 137.197 13.0461 142.787 13.0461C147.12 13.0461 150.313 14.1486 152.248 16.1486L154.428 18.341L155.159 14.8153L155.376 13.7896H166.491L169.671 16.982L170.12 14.8281L170.338 13.8025H192.21L192.799 14.3923C194.281 13.5181 195.977 13.0741 197.698 13.1102C198.732 13.0698 199.763 13.2593 200.716 13.6649C201.669 14.0706 202.52 14.6824 203.209 15.4564C203.174 15.4161 203.14 15.3757 203.105 15.3361C203.044 15.2626 202.982 15.1908 202.917 15.1244L204.031 16.2384C205.001 15.2335 206.168 14.4377 207.457 13.8998C208.747 13.3619 210.133 13.0931 211.529 13.1102C212.272 13.0646 213.012 13.1277 213.731 13.2957L212.518 12.0718C212.352 11.8948 212.24 11.6747 212.195 11.4369C212.15 11.1991 212.173 10.9533 212.261 10.728C212.349 10.5026 212.5 10.307 212.695 10.1636C212.891 10.0203 213.122 9.93506 213.364 9.91793H214.338C214.6 9.89289 214.861 9.85439 215.12 9.80251C216.482 9.51612 217.764 8.9305 218.873 8.0879C219.982 7.2454 220.89 6.16704 221.531 4.93077C221.587 4.83515 221.637 4.73679 221.684 4.63592V4.57184C222.125 3.62228 222.393 2.60229 222.479 1.55899C222.501 1.2348 222.647 0.931274 222.885 0.709984C223.123 0.488616 223.436 0.36592 223.761 0.366703H223.864C224.058 0.38517 224.246 0.447926 224.413 0.55012C224.58 0.652392 224.72 0.791363 224.826 0.956471C225.748 1.85391 230.876 7.07175 230.876 7.07175C231.304 7.53124 231.272 8.12774 231.239 8.73127C231.219 9.10445 231.198 9.48036 231.286 9.82818C231.52 9.87004 231.756 9.90173 231.991 9.92317C232.218 9.94359 232.445 9.9547 232.672 9.95636C232.937 9.96191 233.195 10.05 233.408 10.2085C233.621 10.367 233.781 10.5881 233.863 10.841Z" fill="#543BF5"/>
<path d="M59.6721 15.0588H67.7746L63.2362 36.5842C62.403 40.6611 60.8131 42.9945 58.4029 44.6483C55.9651 46.0629 53.1657 46.7315 50.3518 46.5713C44.9928 46.5713 39.8518 44.3278 39.339 38.8791H47.4927C47.7491 40.1611 48.9287 40.8919 50.7235 40.8919C53.1466 40.8919 54.2619 39.4304 54.762 37.1355L55.2491 34.7637H55.0696C54.3542 35.5502 53.4863 36.1829 52.5189 36.6237C51.5513 37.0644 50.5044 37.304 49.4415 37.3278C44.7236 37.3278 40.9799 33.5714 41.0569 28.0714C41.1595 21.6612 45.3389 14.3793 52.3517 14.3793C53.6807 14.2898 55.0074 14.5826 56.1752 15.2233C57.3431 15.8639 58.3029 16.8256 58.9414 17.9946H59.0824L59.6721 15.0588ZM52.7106 31.315C55.8261 31.315 57.5568 27.7254 57.6081 24.6356C57.6081 22.5716 56.8004 20.4561 54.4158 20.4561C51.1593 20.4561 49.5055 24.0843 49.4543 27.1996C49.4543 29.3022 50.262 31.315 52.6465 31.315M143.672 32.0074C143.672 33.3791 142.491 33.9304 140.94 33.9304C138.376 33.9304 137.518 32.6483 137.505 30.8535H129.441C129.3 37.5458 135.274 39.1996 140.582 39.1996C147.364 39.1996 151.761 36.2637 151.852 30.4048C151.852 25.7253 147.864 24.3023 143.941 23.392C140.928 22.6998 139.608 22.1997 139.62 21.0587C139.634 19.9177 140.98 19.4561 142.3 19.4561C143.954 19.4561 145.081 20.0459 145.197 21.5587H153.031C152.941 15.969 147.902 14.328 142.774 14.328C136.543 14.328 131.684 17.1613 131.607 22.5202C131.607 26.7381 134.454 28.2894 138.748 29.392C141.505 30.1228 143.697 30.3535 143.672 32.0074ZM203.581 18.5331H203.44C203.092 17.2706 202.321 16.1654 201.258 15.4005C200.194 14.6357 198.902 14.2572 197.594 14.328C194.107 14.328 191.979 16.0588 189.966 18.6741H189.826L190.569 15.0588H182.414L177.53 38.4176H186.056L188.62 25.8151C189.209 23.0715 190.607 21.1485 192.723 21.1485C194.838 21.1485 195.12 22.8407 194.684 24.9049L191.863 38.4176H200.388L202.954 25.8151C203.543 22.8921 204.941 21.1485 207.055 21.1485C209.171 21.1485 209.454 22.751 209.018 24.9049L206.197 38.4176H214.722L217.774 24.533C219.056 18.6741 217.094 14.2766 211.467 14.2766C209.9 14.2702 208.359 14.6564 206.981 15.4C205.604 16.1436 204.435 17.2208 203.581 18.5331ZM2.55719 38.4176H11.3648L18.1725 5.66138H9.37766L2.55719 38.4176ZM29.0698 14.3664C35.0184 14.3664 40.698 17.6228 40.6082 24.9945C40.5313 33.0586 35.0441 39.0971 26.6595 39.0971C20.8903 39.0971 15.1213 35.892 15.2238 28.5586C15.3648 20.687 20.775 14.3664 29.0698 14.3664ZM26.9032 33.3791C30.6596 33.3791 32.0313 27.9304 32.0313 24.7253C32.0313 22.4305 31.3263 20.1869 28.8518 20.1869C25.1339 20.1869 23.8647 25.9561 23.8647 28.9305C23.8647 31.315 24.5314 33.3791 26.9545 33.3791M21.1083 5.66138L19.8263 12.2126H93.7873L95.0694 5.66138H21.1083ZM80.5951 14.3664C86.5437 14.3664 92.2232 17.6228 92.1335 24.9945C92.0566 33.0586 86.5566 39.0971 78.172 39.0971C72.4028 39.0971 66.6336 35.892 66.7491 28.5586C66.9285 20.687 72.3387 14.3664 80.5951 14.3664ZM78.4669 33.3791C82.2233 33.3791 83.595 27.9304 83.595 24.7253C83.595 22.4305 82.8771 20.1869 80.4028 20.1869C76.6977 20.1869 75.4156 25.9561 75.4156 28.9305C75.4156 31.315 76.0823 33.3791 78.5182 33.3791M98.095 5.66138L96.8129 12.2126H105.326L106.608 5.66138H98.095ZM91.2746 38.4176H99.8L104.685 15.0588H96.1077L91.2746 38.4176ZM118.479 39.1996C117.123 39.2959 115.766 39.0123 114.561 38.3805C113.356 37.7487 112.351 36.7937 111.659 35.6227H111.518L108.954 47.4431H100.326L107.249 15.0588H115.351L114.71 18.1741C115.556 17.0234 116.652 16.0794 117.916 15.4132C119.179 14.7471 120.577 14.376 122.005 14.328C127.133 14.328 130.146 18.7254 130.056 24.4433C129.941 31.6355 126.21 39.1996 118.428 39.1996H118.479ZM118.146 20.9433C114.851 20.9433 112.826 25.1613 112.774 28.4049C112.774 30.6612 113.569 33.174 116.274 33.174C119.8 33.174 121.249 28.5074 121.287 25.3919C121.287 23.2766 120.672 20.9433 118.146 20.9433ZM167.441 34.7381H167.582L166.838 38.4433H174.94L179.826 15.0843H171.313L168.595 28.1355C168.044 30.8407 166.376 32.2638 164.275 32.2638C162.171 32.2638 161.709 30.2894 162.133 28.2253L164.89 15.0843H156.377L153.363 29.5074C152.081 35.7893 155.005 39.174 159.903 39.174C161.44 39.159 162.948 38.7387 164.27 37.9554C165.593 37.172 166.688 36.0534 167.441 34.7124V34.7381ZM213.171 47.5586L214.453 41.0072H113.351L112.069 47.5586H213.171Z" fill="white"/>
<path d="M222.337 21.4689C222.254 21.4625 222.172 21.4394 222.096 21.401C222.02 21.3627 221.953 21.3099 221.898 21.2455C221.844 21.1811 221.803 21.1066 221.777 21.0261C221.751 20.9456 221.741 20.8609 221.748 20.7766C221.855 19.6349 221.719 18.4833 221.35 17.3977C220.981 16.312 220.387 15.3164 219.605 14.4764C218.825 13.6364 217.875 12.9708 216.82 12.5233C215.763 12.0757 214.625 11.8562 213.478 11.8793C213.309 11.8793 213.146 11.8118 213.026 11.6915C212.906 11.5713 212.837 11.4083 212.837 11.2382C212.837 11.0682 212.906 10.9052 213.026 10.785C213.146 10.6648 213.309 10.5972 213.478 10.5972C213.786 10.6171 214.095 10.6171 214.402 10.5972C216.679 10.3546 218.8 9.32583 220.4 7.68785C222.002 6.04987 222.981 3.90517 223.171 1.62293C223.184 1.46197 223.257 1.31182 223.376 1.20248C223.495 1.09314 223.65 1.03269 223.812 1.03321C223.896 1.03968 223.978 1.06276 224.054 1.10111C224.129 1.13946 224.196 1.19232 224.25 1.25667C224.306 1.32101 224.347 1.39556 224.373 1.47602C224.399 1.55648 224.409 1.64127 224.402 1.7255C224.295 2.8662 224.431 4.01658 224.798 5.10141C225.167 6.18622 225.761 7.18105 226.54 8.02086C227.32 8.86066 228.267 9.52652 229.321 9.97491C230.376 10.4233 231.513 10.6441 232.658 10.6229C232.827 10.6229 232.991 10.6904 233.112 10.8106C233.232 10.9308 233.299 11.0939 233.299 11.2639C233.299 11.4339 233.232 11.597 233.112 11.7172C232.991 11.8374 232.827 11.9049 232.658 11.9049C230.223 11.9452 227.887 12.8834 226.101 14.5397C224.315 16.196 223.202 18.4535 222.979 20.8792C222.966 21.0402 222.893 21.1904 222.774 21.2997C222.655 21.4091 222.5 21.4695 222.337 21.4689Z" fill="white"/>
</svg>
