<svg width="80" height="80" viewBox="0 0 80 80" fill="none" xmlns="http://www.w3.org/2000/svg">
<circle cx="40" cy="40" r="40" fill="#EBF0FD"/>
<path fill-rule="evenodd" clip-rule="evenodd" d="M30.0638 27.8291C30.3481 27.5451 30.6895 27.3249 31.0654 27.1829C31.4413 27.0409 31.843 26.9805 32.2441 27.0055C32.6451 27.0306 33.0362 27.1406 33.3915 27.3282C33.7468 27.5158 34.0581 27.7769 34.3049 28.094L37.2217 31.8414C37.7563 32.5288 37.9448 33.4242 37.7336 34.2692L36.8447 37.8281C36.7988 38.0125 36.8012 38.2056 36.8519 38.3887C36.9026 38.5717 36.9998 38.7386 37.1339 38.8731L41.1264 42.8659C41.2611 43.0004 41.4282 43.0977 41.6116 43.1484C41.795 43.1991 41.9884 43.2014 42.1729 43.1551L45.7299 42.2662C46.1469 42.162 46.5821 42.1539 47.0027 42.2425C47.4233 42.3312 47.8182 42.5144 48.1576 42.7781L51.9047 45.6935C53.2518 46.7417 53.3753 48.7324 52.1696 49.9366L50.4894 51.6169C49.2869 52.8195 47.4897 53.3476 45.8144 52.7577C41.5265 51.2489 37.6333 48.7939 34.4235 45.5749C31.205 42.3654 28.7502 38.4724 27.2413 34.1847C26.653 32.5109 27.1811 30.7119 28.3836 29.5094L30.0638 27.8291Z" fill="#0D44D1"/>
</svg>
