<svg width="94" height="126" viewBox="0 0 94 126" fill="none" xmlns="http://www.w3.org/2000/svg">
<path opacity="0.6" d="M93.7418 37.0577C93.7418 33.9588 92.1923 30.3434 90.1264 28.0192C82.5083 19.7555 74.5028 11.75 66.239 4.13186C63.9149 1.93681 60.0412 0.387357 56.8132 0.258236C42.4808 -0.129127 28.1483 5.91646e-06 13.8159 0.129127C4.51921 0.129127 0 4.51922 0 13.8159C0 30.0852 0 46.3544 0 62.7527C0 79.1511 0 95.6785 0 112.077C0 120.728 4.64834 125.247 13.2994 125.247C35.7665 125.247 58.2335 125.247 80.8297 125.247C89.2225 125.247 93.8709 120.599 93.8709 112.206C94 87.2857 94.1291 62.1071 93.7418 37.0577ZM62.7528 12.6538C68.9506 18.8516 75.0192 24.9203 81.217 31.1181C76.956 31.1181 72.1786 31.6346 67.5303 30.8599C65.7226 30.6016 63.2692 27.5027 62.8818 25.4368C62.2362 21.3049 62.7528 16.9148 62.7528 12.6538ZM86.1236 44.0302C86.1236 66.239 86.1236 88.3187 86.1236 110.527C86.1236 116.854 85.478 117.5 79.022 117.5C57.4588 117.5 36.0247 117.5 14.4615 117.5C8.52195 117.5 7.74725 116.725 7.74725 110.657C7.74725 78.7637 7.74725 46.7418 7.74725 14.8489C7.74725 8.6511 8.39287 8.00549 14.3324 8.00549C27.5028 8.00549 40.6731 8.00549 54.6181 8.00549C54.6181 13.6868 54.6181 18.8516 54.6181 24.1456C54.7472 33.4423 60.5577 39.2527 69.9835 39.3819C75.0192 39.3819 80.0549 39.3819 85.8653 39.3819C86.1236 40.9313 86.1236 42.4808 86.1236 44.0302Z" fill="url(#paint0_linear_276_489)"/>
<path opacity="0.6" d="M23.7588 62.6235C39.2533 62.6235 54.4896 62.6235 70.2423 62.6235C70.2423 59.9119 70.2423 57.7168 70.2423 55.2635C54.6187 55.2635 39.2533 55.2635 23.7588 55.2635C23.7588 57.7168 23.7588 60.041 23.7588 62.6235Z" fill="url(#paint1_linear_276_489)"/>
<path opacity="0.6" d="M23.7588 78.1181C39.3824 78.1181 54.7478 78.1181 70.2423 78.1181C70.2423 75.5357 70.2423 73.2115 70.2423 70.7582C54.7478 70.7582 39.5115 70.7582 23.7588 70.7582C23.7588 73.4697 23.7588 75.6648 23.7588 78.1181Z" fill="url(#paint2_linear_276_489)"/>
<path opacity="0.6" d="M23.7588 93.7418C34.3467 93.7418 44.4181 93.7418 54.6187 93.7418C54.6187 91.1594 54.6187 88.9643 54.6187 86.511C44.289 86.511 34.0885 86.511 23.7588 86.511C23.7588 88.9643 23.7588 91.1594 23.7588 93.7418Z" fill="url(#paint3_linear_276_489)"/>
<path opacity="0.6" d="M30.4733 47.9034C31.3771 49.0655 33.0557 48.549 33.7013 47.5161C37.5749 41.5765 41.4486 35.6369 45.3222 29.5683C46.7425 27.3732 43.1271 25.1782 41.7068 27.5023C38.3496 32.6672 34.9925 37.7029 31.7645 42.8677C30.215 40.9309 28.7947 38.9941 27.2453 37.0573C26.5997 36.1534 25.0502 36.2826 24.2755 37.0573C23.3716 37.9611 23.6298 39.1232 24.2755 40.0271C26.4705 42.7386 28.4073 45.321 30.4733 47.9034Z" fill="url(#paint4_linear_276_489)"/>
<defs>
<linearGradient id="paint0_linear_276_489" x1="0.0156236" y1="62.7134" x2="93.9844" y2="62.7134" gradientUnits="userSpaceOnUse">
<stop stop-color="#FF9698"/>
<stop offset="1" stop-color="#F651A0"/>
</linearGradient>
<linearGradient id="paint1_linear_276_489" x1="23.804" y1="58.8672" x2="70.2639" y2="58.8672" gradientUnits="userSpaceOnUse">
<stop stop-color="#FF9698"/>
<stop offset="1" stop-color="#F651A0"/>
</linearGradient>
<linearGradient id="paint2_linear_276_489" x1="23.711" y1="74.441" x2="70.1708" y2="74.441" gradientUnits="userSpaceOnUse">
<stop stop-color="#FF9698"/>
<stop offset="1" stop-color="#F651A0"/>
</linearGradient>
<linearGradient id="paint3_linear_276_489" x1="23.7251" y1="90.101" x2="54.6092" y2="90.101" gradientUnits="userSpaceOnUse">
<stop stop-color="#FF9698"/>
<stop offset="1" stop-color="#F651A0"/>
</linearGradient>
<linearGradient id="paint4_linear_276_489" x1="23.7653" y1="37.5857" x2="45.7457" y2="37.5857" gradientUnits="userSpaceOnUse">
<stop stop-color="#FF9698"/>
<stop offset="1" stop-color="#F651A0"/>
</linearGradient>
</defs>
</svg>
