<svg width="123" height="122" viewBox="0 0 123 122" fill="none" xmlns="http://www.w3.org/2000/svg">
<path d="M121.509 33.1501C121.509 32.3851 121.509 31.4926 121.382 30.7275C120.872 27.4125 119.469 24.735 117.047 22.4399C114.624 20.2724 111.819 19.1249 108.631 18.8699C106.846 18.7424 104.934 18.8699 103.149 18.7424C103.021 18.7424 103.021 18.7424 102.894 18.7424C102.894 18.8699 102.894 19.1249 102.894 19.2524C102.894 22.1849 102.894 24.99 102.894 27.9226C102.894 28.8151 102.766 29.7076 102.639 30.4726C101.364 35.4452 96.6463 38.3777 91.5462 37.3576C87.3386 36.4651 84.1511 32.6401 84.1511 28.4325C84.1511 25.3725 84.1511 22.3125 84.1511 19.3799C84.1511 19.2524 84.1511 19.1249 84.1511 18.8699C79.6885 18.8699 75.3535 18.8699 71.0184 18.8699C75.0985 28.05 76.1185 37.3577 72.931 47.0478C86.0636 47.0478 99.1963 47.0478 112.329 47.0478C112.329 47.3028 112.329 47.4303 112.329 47.6853C112.329 67.7031 112.329 87.7208 112.329 107.739C112.329 108.121 112.329 108.376 112.329 108.759C112.074 110.416 111.309 111.691 109.779 112.456C109.014 112.839 108.249 112.839 107.356 112.839C79.4336 112.839 51.5107 112.839 23.7153 112.839C23.3328 112.839 23.0778 112.839 22.6953 112.839C20.9103 112.711 19.5077 111.564 18.9977 109.906C18.7427 109.269 18.7427 108.504 18.7427 107.866C18.7427 96.0084 18.7427 84.1508 18.7427 72.2931C18.7427 72.1656 18.7427 72.0381 18.7427 71.9106C18.7427 71.7831 18.6152 71.5281 18.4877 71.5281C15.8102 70.3806 13.3877 68.7231 11.0926 66.938C10.5826 66.5555 9.94513 66.0456 9.30762 65.5356C9.30762 65.7906 9.30762 65.918 9.30762 66.0455C9.30762 79.6882 9.30762 93.2034 9.30762 106.846C9.30762 107.484 9.30761 108.249 9.43511 108.886C9.69011 112.074 10.8376 115.006 13.1327 117.429C15.9377 120.361 19.3802 121.764 23.4603 121.764C51.3832 121.764 79.4336 121.764 107.356 121.764C107.994 121.764 108.759 121.764 109.396 121.636C112.711 121.381 115.644 119.979 118.067 117.556C120.872 114.751 122.019 111.309 122.019 107.356C121.509 82.6208 121.509 57.8854 121.509 33.1501Z" fill="url(#paint0_linear_276_466)"/>
<path d="M88.7418 21.1653C88.7418 23.4603 88.7418 25.8829 88.7418 28.1779C88.7418 28.3054 88.7418 28.3054 88.7418 28.4329C88.8693 30.8555 90.2719 32.513 92.6944 32.768C94.2244 33.023 95.6269 32.6405 96.7744 31.6205C97.7944 30.728 98.177 29.453 98.177 28.0504C98.177 23.3329 98.177 18.7428 98.177 14.0253C98.177 13.1327 98.0494 12.2403 97.5394 11.3477C96.7744 10.0727 95.4994 9.43518 94.0969 9.30767C91.2918 9.05267 88.9968 10.7102 88.8693 13.6428C88.6143 16.1928 88.7418 18.7428 88.7418 21.1653Z" fill="url(#paint1_linear_276_466)"/>
<path d="M79.3047 56.3562C76.2447 56.3562 73.0571 56.3562 69.9971 56.3562C69.9971 59.5437 69.9971 62.6038 69.9971 65.6638C73.0571 65.6638 76.2447 65.6638 79.3047 65.6638C79.3047 62.6038 79.3047 59.4162 79.3047 56.3562Z" fill="url(#paint2_linear_276_466)"/>
<path d="M98.0488 56.3562C94.9888 56.3562 91.8013 56.3562 88.7412 56.3562C88.7412 59.5437 88.7412 62.6038 88.7412 65.6638C91.8013 65.6638 94.9888 65.6638 98.0488 65.6638C98.0488 62.6038 98.0488 59.4162 98.0488 56.3562Z" fill="url(#paint3_linear_276_466)"/>
<path d="M41.8203 75.0986C38.6328 75.0986 35.5727 75.0986 32.5127 75.0986C32.5127 78.1587 32.5127 81.3462 32.5127 84.4062C35.5727 84.4062 38.7603 84.4062 41.8203 84.4062C41.8203 81.3462 41.8203 78.2862 41.8203 75.0986Z" fill="url(#paint4_linear_276_466)"/>
<path d="M60.5625 75.0986C57.375 75.0986 54.3149 75.0986 51.2549 75.0986C51.2549 78.1587 51.2549 81.3462 51.2549 84.4062C54.3149 84.4062 57.5025 84.4062 60.5625 84.4062C60.5625 81.3462 60.5625 78.2862 60.5625 75.0986Z" fill="url(#paint5_linear_276_466)"/>
<path d="M79.3047 75.0986C76.2447 75.0986 73.0571 75.0986 69.9971 75.0986C69.9971 78.2862 69.9971 81.3462 69.9971 84.4062C73.1846 84.4062 76.2447 84.4062 79.3047 84.4062C79.3047 81.3462 79.3047 78.2862 79.3047 75.0986Z" fill="url(#paint6_linear_276_466)"/>
<path d="M88.7412 84.4062C91.9288 84.4062 94.9888 84.4062 98.0488 84.4062C98.0488 81.2187 98.0488 78.1587 98.0488 75.0986C94.8613 75.0986 91.8013 75.0986 88.7412 75.0986C88.7412 78.2862 88.7412 81.3462 88.7412 84.4062Z" fill="url(#paint7_linear_276_466)"/>
<path d="M32.3857 103.149C35.4458 103.149 38.6333 103.149 41.6934 103.149C41.6934 99.9615 41.6934 96.9013 41.6934 93.8413C38.5058 93.8413 35.4458 93.8413 32.3857 93.8413C32.3857 97.0289 32.3857 100.089 32.3857 103.149Z" fill="url(#paint8_linear_276_466)"/>
<path d="M51.2549 103.149C54.4424 103.149 57.5025 103.149 60.5625 103.149C60.5625 99.9615 60.5625 96.9013 60.5625 93.8413C57.375 93.8413 54.3149 93.8413 51.2549 93.8413C51.2549 97.0289 51.2549 100.089 51.2549 103.149Z" fill="url(#paint9_linear_276_466)"/>
<path d="M79.3047 93.8413C76.2447 93.8413 73.0571 93.8413 69.9971 93.8413C69.9971 97.0289 69.9971 100.089 69.9971 103.149C73.1846 103.149 76.2447 103.149 79.3047 103.149C79.3047 100.089 79.3047 97.0289 79.3047 93.8413Z" fill="url(#paint10_linear_276_466)"/>
<path d="M88.7412 103.149C91.8013 103.149 94.9888 103.149 98.0488 103.149C98.0488 99.9615 98.0488 96.9013 98.0488 93.8413C94.8613 93.8413 91.8013 93.8413 88.7412 93.8413C88.7412 97.0289 88.7412 100.089 88.7412 103.149Z" fill="url(#paint11_linear_276_466)"/>
<path d="M46.9211 25.2456C47.8136 24.0981 48.8336 23.0781 49.7261 21.9306C50.3636 21.1656 50.3636 19.8905 49.7261 19.253C48.9611 18.6155 47.5586 18.6155 46.7936 19.253C42.9685 22.8231 39.1435 26.3932 35.3184 29.9632C35.1909 30.0907 34.9359 30.0907 34.8084 30.0907C33.5334 29.9632 32.2584 30.0907 31.1109 30.7282C29.5809 31.7482 29.0709 33.1507 28.9434 34.8083C28.9434 36.2108 29.3259 37.4858 30.0909 38.5058C30.3459 38.8883 30.7284 39.1434 30.9834 39.3984C31.1109 39.5259 31.2384 39.6533 31.2384 39.9083C31.6209 43.7334 31.8759 47.431 32.2584 51.256C32.3859 52.276 32.7684 52.786 33.7884 53.041C34.0434 53.041 34.2984 53.1685 34.5534 53.1685C35.701 53.1685 36.976 52.1485 36.976 51.256C37.1035 49.471 37.231 47.8134 37.3585 46.0284C37.486 43.8609 37.6135 41.6934 37.741 39.5258C37.741 39.3983 37.8685 39.2708 37.8685 39.1433C39.016 37.7408 39.3985 36.0833 39.271 34.2983C39.271 34.1708 39.271 34.0432 39.3985 33.9157C41.9485 30.9832 44.4986 28.1782 46.9211 25.2456Z" fill="url(#paint12_linear_276_466)"/>
<path d="M14.1527 63.4958C21.5478 68.8509 29.9629 71.1459 39.0155 70.1259C43.3506 69.6159 47.3031 68.3409 51.1282 66.3009C57.6308 62.8583 62.6033 57.7583 66.0459 51.2557C69.7434 44.1156 70.8909 36.7205 69.3609 28.8154C68.0859 21.9303 64.8984 16.0652 60.0533 10.9651C56.6108 7.39507 52.5307 4.59003 47.9406 2.6775C45.0081 1.40249 41.9481 0.637524 38.7605 0.255019C37.9955 0.127517 37.2305 0.127502 36.593 0C35.573 0 34.4255 0 33.4054 0C33.2779 0 33.1504 -3.11302e-05 33.0229 0.127471C32.1304 0.254972 31.1104 0.254988 30.2179 0.38249C25.8828 1.02 21.9303 2.29501 17.9777 4.20754C17.7227 4.33504 17.4677 4.46257 17.0852 4.71758C17.4677 4.71758 17.5952 4.71755 17.8502 4.84505C20.0178 5.22755 21.5478 6.5026 22.5678 8.54263C22.8228 9.05264 23.0778 9.6901 23.3328 10.3276C23.4603 10.3276 23.5878 10.2001 23.7153 10.2001C29.0704 7.6501 34.6805 7.01262 40.418 8.16014C47.0481 9.43516 52.4032 12.7501 56.6107 17.9777C61.8383 24.4803 63.7508 32.0029 62.3483 40.2905C61.4558 45.3906 59.1608 49.9807 55.7182 53.8057C50.6182 59.4158 44.3706 62.4759 36.7205 62.9859C32.5129 63.2409 28.4329 62.6033 24.4803 60.9458C18.3602 58.3958 13.7702 54.1882 10.5826 48.3232C8.79762 45.1356 7.7776 41.693 7.52259 37.9955C7.39509 37.103 7.3951 36.2105 7.3951 35.318C7.3951 34.9355 7.5226 26.5204 11.4752 23.4603L11.8577 23.7153C12.8777 24.6078 13.7702 25.3728 14.7902 26.1378C15.1727 26.3928 15.5552 26.7754 15.9377 27.0304C16.7027 27.5404 17.7227 27.1579 17.8502 26.3929C18.1052 25.1178 18.3602 23.8428 18.4877 22.5678C18.7428 19.8903 18.8703 17.0852 18.8703 14.4077C18.8703 13.2602 18.8702 12.1126 18.7427 10.9651C18.7427 10.0726 18.1052 9.43516 17.0852 9.43516C16.8302 9.43516 16.5752 9.43516 16.3202 9.43516C11.3477 9.18015 6.37508 9.43509 1.53002 10.3276C0.510003 10.4551 -7.78969e-06 11.6026 0.509999 12.4952C0.509999 12.4952 0.510007 12.6227 0.637509 12.6227C1.14752 13.0052 1.65752 13.5152 2.16753 13.8977C3.18754 14.7902 4.08005 15.6827 5.10007 16.4478C4.84506 16.8303 4.71756 17.2127 4.46256 17.5952C3.31504 19.7627 2.42252 22.0578 1.78502 24.4803C1.14751 26.7754 0.510003 29.0704 0.255 31.4929C0.127498 32.2579 0.127502 32.8955 0 33.6605C0 34.6805 0 35.828 0 36.848C0.127502 37.7405 0.127498 38.633 0.255 39.3981C0.765006 43.3506 1.91253 47.0481 3.57005 50.6182C5.73758 55.8458 9.43513 60.1808 14.1527 63.4958Z" fill="url(#paint13_linear_276_466)"/>
<defs>
<linearGradient id="paint0_linear_276_466" x1="24.3073" y1="42.574" x2="123.298" y2="109.344" gradientUnits="userSpaceOnUse">
<stop stop-color="#F369D6"/>
<stop offset="1" stop-color="#5A51DE"/>
</linearGradient>
<linearGradient id="paint1_linear_276_466" x1="86.1501" y1="16.2802" x2="100.638" y2="26.0522" gradientUnits="userSpaceOnUse">
<stop stop-color="#F369D6"/>
<stop offset="1" stop-color="#5A51DE"/>
</linearGradient>
<linearGradient id="paint2_linear_276_466" x1="69.2701" y1="57.412" x2="79.9993" y2="64.6492" gradientUnits="userSpaceOnUse">
<stop stop-color="#F369D6"/>
<stop offset="1" stop-color="#5A51DE"/>
</linearGradient>
<linearGradient id="paint3_linear_276_466" x1="88.0373" y1="57.411" x2="98.7701" y2="64.6503" gradientUnits="userSpaceOnUse">
<stop stop-color="#F369D6"/>
<stop offset="1" stop-color="#5A51DE"/>
</linearGradient>
<linearGradient id="paint4_linear_276_466" x1="31.7437" y1="76.1719" x2="42.4915" y2="83.4214" gradientUnits="userSpaceOnUse">
<stop stop-color="#F369D6"/>
<stop offset="1" stop-color="#5A51DE"/>
</linearGradient>
<linearGradient id="paint5_linear_276_466" x1="50.5144" y1="76.1733" x2="61.2576" y2="83.4199" gradientUnits="userSpaceOnUse">
<stop stop-color="#F369D6"/>
<stop offset="1" stop-color="#5A51DE"/>
</linearGradient>
<linearGradient id="paint6_linear_276_466" x1="69.2671" y1="76.1716" x2="79.9954" y2="83.4079" gradientUnits="userSpaceOnUse">
<stop stop-color="#F369D6"/>
<stop offset="1" stop-color="#5A51DE"/>
</linearGradient>
<linearGradient id="paint7_linear_276_466" x1="88.0272" y1="76.1772" x2="98.7576" y2="83.4149" gradientUnits="userSpaceOnUse">
<stop stop-color="#F369D6"/>
<stop offset="1" stop-color="#5A51DE"/>
</linearGradient>
<linearGradient id="paint8_linear_276_466" x1="31.7436" y1="94.9276" x2="42.4759" y2="102.167" gradientUnits="userSpaceOnUse">
<stop stop-color="#F369D6"/>
<stop offset="1" stop-color="#5A51DE"/>
</linearGradient>
<linearGradient id="paint9_linear_276_466" x1="50.5141" y1="94.9261" x2="61.2393" y2="102.16" gradientUnits="userSpaceOnUse">
<stop stop-color="#F369D6"/>
<stop offset="1" stop-color="#5A51DE"/>
</linearGradient>
<linearGradient id="paint10_linear_276_466" x1="69.2624" y1="94.9158" x2="79.9922" y2="102.153" gradientUnits="userSpaceOnUse">
<stop stop-color="#F369D6"/>
<stop offset="1" stop-color="#5A51DE"/>
</linearGradient>
<linearGradient id="paint11_linear_276_466" x1="88.0315" y1="94.928" x2="98.7624" y2="102.166" gradientUnits="userSpaceOnUse">
<stop stop-color="#F369D6"/>
<stop offset="1" stop-color="#5A51DE"/>
</linearGradient>
<linearGradient id="paint12_linear_276_466" x1="31.7471" y1="29.4546" x2="45.6699" y2="38.8457" gradientUnits="userSpaceOnUse">
<stop stop-color="#F369D6"/>
<stop offset="1" stop-color="#5A51DE"/>
</linearGradient>
<linearGradient id="paint13_linear_276_466" x1="-0.251434" y1="11.5974" x2="63.8726" y2="54.8496" gradientUnits="userSpaceOnUse">
<stop stop-color="#F369D6"/>
<stop offset="1" stop-color="#5A51DE"/>
</linearGradient>
</defs>
</svg>
