<svg width="176" height="101" viewBox="0 0 176 101" fill="none" xmlns="http://www.w3.org/2000/svg">
<path d="M60.9313 61.539C46.3805 53.051 31.0719 53.3542 17.1275 63.0547C4.24398 71.8458 0.454711 85.4871 0 100.493C26.828 100.493 53.5044 100.493 80.4839 100.493C79.8776 84.4261 75.482 70.0269 60.9313 61.539ZM9.54894 91.7015C9.2458 78.6664 24.5544 65.0251 39.863 64.8735C58.9609 64.7219 70.3287 80.0306 71.2381 91.7015C50.4729 91.7015 30.0109 91.7015 9.54894 91.7015Z" fill="url(#paint0_linear_276_498)"/>
<path d="M39.8622 52.2932C54.5645 52.4448 66.6902 40.7739 66.387 25.92C66.0839 10.3083 53.6551 0.15303 40.4685 0.00145985C26.0693 -0.150111 14.2468 11.5208 14.0952 25.7684C13.9437 40.1676 25.463 51.9901 39.8622 52.2932ZM40.3169 8.79252C50.0174 8.79252 57.4444 16.5226 57.4444 26.3747C57.4444 35.7721 49.7143 43.5022 40.1653 43.5022C30.0101 43.5022 23.1895 35.6205 22.8863 26.981C22.7347 16.5226 30.4648 8.79252 40.3169 8.79252Z" fill="url(#paint1_linear_276_498)"/>
<path d="M156.118 61.539C141.567 53.051 126.258 53.3542 112.314 63.0547C99.4305 71.8458 95.6412 85.4871 95.1865 100.493C122.014 100.493 148.691 100.493 175.67 100.493C174.913 84.4261 170.669 70.0269 156.118 61.539ZM134.746 64.8735C153.844 64.7219 165.212 80.0306 166.121 91.7015C145.508 91.7015 125.046 91.7015 104.584 91.7015C104.281 78.6664 119.589 65.0251 134.746 64.8735Z" fill="url(#paint2_linear_276_498)"/>
<path d="M134.897 52.2932C149.6 52.4448 161.725 40.7739 161.422 25.92C161.119 10.3083 148.69 0.15303 135.504 0.00145985C121.104 -0.150111 109.282 11.5208 109.13 25.7684C108.979 40.1676 120.498 51.9901 134.897 52.2932Z" fill="url(#paint3_linear_276_498)"/>
<path d="M103.372 26.0715C103.221 25.9199 103.221 25.9199 103.221 25.7683C99.28 21.8275 95.3392 17.8867 91.3984 13.9459C91.2468 13.7943 90.7921 13.6427 90.6405 13.6427C88.6701 13.6427 86.6997 13.6427 84.7293 13.6427C84.2746 13.6427 83.6683 13.6427 83.2136 13.6427V13.7943C86.245 16.8257 89.2764 19.8571 92.3078 22.8885C86.0934 22.8885 80.0306 22.8885 73.9678 22.8885C73.9678 24.8589 73.9678 26.8293 73.9678 28.7997C80.0306 28.7997 86.0934 28.7997 92.3078 28.7997V28.9513C89.2764 31.9827 86.245 35.0141 83.2136 38.0455C83.3651 38.0455 83.6683 38.0455 83.8198 38.0455C86.0934 38.0455 88.367 38.0455 90.4889 38.0455C90.7921 38.0455 91.2468 37.8939 91.5499 37.5908C94.1266 35.0141 96.8549 32.4374 99.4316 29.8608C100.796 28.7998 102.008 27.4356 103.372 26.0715Z" fill="url(#paint4_linear_276_498)"/>
<defs>
<linearGradient id="paint0_linear_276_498" x1="7.52547" y1="71.1034" x2="79.9131" y2="101.83" gradientUnits="userSpaceOnUse">
<stop stop-color="#6DDEF5"/>
<stop offset="1" stop-color="#655AF0"/>
</linearGradient>
<linearGradient id="paint1_linear_276_498" x1="16.1608" y1="15.8824" x2="64.4089" y2="36.3626" gradientUnits="userSpaceOnUse">
<stop stop-color="#6DDEF5"/>
<stop offset="1" stop-color="#655AF0"/>
</linearGradient>
<linearGradient id="paint2_linear_276_498" x1="102.613" y1="71.1034" x2="175" y2="101.83" gradientUnits="userSpaceOnUse">
<stop stop-color="#6DDEF5"/>
<stop offset="1" stop-color="#655AF0"/>
</linearGradient>
<linearGradient id="paint3_linear_276_498" x1="111.248" y1="15.8824" x2="159.497" y2="36.3626" gradientUnits="userSpaceOnUse">
<stop stop-color="#6DDEF5"/>
<stop offset="1" stop-color="#655AF0"/>
</linearGradient>
<linearGradient id="paint4_linear_276_498" x1="74.8592" y1="20.942" x2="100.937" y2="32.0114" gradientUnits="userSpaceOnUse">
<stop stop-color="#6DDEF5"/>
<stop offset="1" stop-color="#655AF0"/>
</linearGradient>
</defs>
</svg>
