<svg width="564" height="466" viewBox="0 0 564 466" fill="none" xmlns="http://www.w3.org/2000/svg">
<path d="M532.08 291.203H493.209C492.711 291.203 492.234 291.401 491.882 291.753C491.531 292.104 491.333 292.581 491.333 293.079V304.989C491.333 305.235 491.382 305.478 491.476 305.705C491.571 305.931 491.709 306.137 491.883 306.31C492.058 306.483 492.265 306.62 492.492 306.713C492.72 306.805 492.963 306.852 493.209 306.85H495.74C494.802 308.502 493.373 311.167 493.73 311.167C495.934 309.865 498.052 308.423 500.072 306.85H532.08C532.575 306.85 533.05 306.654 533.401 306.306C533.753 305.957 533.952 305.484 533.956 304.989V293.079C533.952 292.583 533.753 292.108 533.402 291.757C533.051 291.406 532.576 291.207 532.08 291.203V291.203Z" stroke="#263238" stroke-linecap="round" stroke-linejoin="round"/>
<path d="M522.075 313.862H560.946C561.193 313.86 561.438 313.907 561.667 314C561.895 314.094 562.103 314.232 562.277 314.407C562.452 314.581 562.59 314.789 562.684 315.017C562.777 315.246 562.824 315.491 562.822 315.737V327.648C562.824 327.894 562.777 328.139 562.684 328.368C562.59 328.596 562.452 328.804 562.277 328.978C562.103 329.153 561.895 329.291 561.667 329.385C561.438 329.478 561.193 329.525 560.946 329.523H558.416C559.339 331.176 560.783 333.841 560.425 333.841C558.221 332.538 556.103 331.096 554.083 329.523H522.075C521.578 329.523 521.1 329.326 520.749 328.974C520.397 328.622 520.199 328.145 520.199 327.648V315.737C520.199 315.24 520.397 314.763 520.749 314.411C521.1 314.059 521.578 313.862 522.075 313.862V313.862Z" stroke="#263238" stroke-linecap="round" stroke-linejoin="round"/>
<path d="M522.075 266.728H560.946C561.193 266.726 561.438 266.773 561.667 266.866C561.895 266.96 562.103 267.098 562.277 267.273C562.452 267.447 562.59 267.655 562.684 267.883C562.777 268.112 562.824 268.357 562.822 268.603V280.513C562.822 280.759 562.774 281.002 562.679 281.229C562.585 281.456 562.446 281.662 562.272 281.835C562.098 282.008 561.891 282.144 561.663 282.237C561.436 282.33 561.192 282.376 560.946 282.374H558.416C559.339 284.027 560.783 286.692 560.425 286.692C558.221 285.39 556.103 283.947 554.083 282.374H522.075C521.58 282.374 521.105 282.179 520.754 281.83C520.403 281.482 520.203 281.008 520.199 280.513V268.603C520.199 268.106 520.397 267.629 520.749 267.277C521.1 266.925 521.578 266.728 522.075 266.728V266.728Z" stroke="#263238" stroke-linecap="round" stroke-linejoin="round"/>
<path d="M58.269 196.98C58.544 195.658 58.516 194.292 58.1872 192.983C57.8583 191.674 57.2372 190.457 56.3704 189.422C55.5036 188.388 54.4137 187.564 53.1826 187.011C51.9514 186.458 50.611 186.191 49.262 186.231C43.9323 186.231 39.2278 195.163 39.2278 195.163C39.2278 195.163 32.9155 188.836 27.3178 188.285C21.7201 187.735 16.6732 193.764 19.2785 201.684C23.0302 213.028 40.3295 220.502 40.3295 220.502C40.3295 220.502 56.1401 209.604 58.269 196.98Z" stroke="#263238" stroke-linecap="round" stroke-linejoin="round"/>
<path d="M20.7517 219.117C20.6072 218.416 20.3071 217.756 19.8735 217.187C19.4398 216.617 18.8838 216.152 18.2464 215.827C17.609 215.501 16.9066 215.322 16.1909 215.304C15.4753 215.286 14.7648 215.429 14.1119 215.723C11.5214 216.839 11.0302 222.11 11.0302 222.11C11.0302 222.11 6.56389 220.323 3.8097 221.187C1.0555 222.05 -0.269489 226.04 2.63358 229.375C6.81698 234.183 16.8065 234.302 16.8065 234.302C16.8065 234.302 22.3 225.802 20.7517 219.117Z" stroke="#263238" stroke-linecap="round" stroke-linejoin="round"/>
<path d="M30.2934 226.487C15.4058 241.836 25.1423 263.214 40.8337 262.946C58.5946 262.663 57.21 233.811 48.7986 247.091C40.3871 260.371 61.3785 282.821 72.3358 269.884" stroke="#263238" stroke-linecap="round" stroke-linejoin="round"/>
<path d="M375.299 86.9159C375.299 50.903 336.502 21.7085 288.654 21.7085C240.805 21.7085 201.993 50.903 201.993 86.9159C201.993 120.86 236.473 148.744 280.51 151.826L288.654 173.07L296.782 151.826C340.76 148.744 375.299 120.86 375.299 86.9159Z" fill="white" stroke="#263238" stroke-linecap="round" stroke-linejoin="round"/>
<path d="M294.698 76.8371V66.4159L289.011 65.9544C288.462 63.7814 287.6 61.7 286.45 59.776L290.157 55.4438L282.818 48.1042L278.53 51.8707C276.603 50.7275 274.523 49.8652 272.352 49.3101L271.905 43.623H261.484L261.037 49.3101C258.867 49.8652 256.786 50.7275 254.859 51.8707L250.527 48.1637L243.187 55.5033L246.894 59.8356C245.745 61.7596 244.882 63.8409 244.334 66.0139L238.646 66.4754V76.8967L244.334 77.3433C244.882 79.5163 245.745 81.5977 246.894 83.5216L243.187 87.8688L250.527 95.1935L254.859 91.4865C256.78 92.6421 258.862 93.5051 261.037 94.0471L261.484 99.7342H271.905L272.352 94.0471C274.527 93.5051 276.609 92.6421 278.53 91.4865L282.862 95.1935L290.202 87.8688L286.495 83.5216C287.644 81.5977 288.507 79.5163 289.056 77.3433L294.698 76.8371ZM266.62 81.6309C264.648 81.628 262.721 81.0405 261.083 79.9427C259.444 78.8448 258.168 77.286 257.415 75.4631C256.663 73.6402 256.467 71.6351 256.854 69.7012C257.24 67.7673 258.192 65.9914 259.587 64.5979C260.983 63.2044 262.76 62.2559 264.695 61.8722C266.629 61.4885 268.634 61.6869 270.456 62.4423C272.277 63.1977 273.834 64.4762 274.93 66.1162C276.025 67.7562 276.61 69.6841 276.61 71.6563C276.61 72.9674 276.351 74.2657 275.849 75.4769C275.347 76.688 274.611 77.7883 273.683 78.7147C272.755 79.6411 271.654 80.3755 270.442 80.8759C269.23 81.3763 267.931 81.6329 266.62 81.6309Z" fill="#FFC000" stroke="#263238" stroke-linecap="round" stroke-linejoin="round"/>
<path d="M338.497 89.566V81.5416L334.105 81.1992C333.678 79.5192 333.012 77.9096 332.125 76.4203L334.983 73.0706L329.326 67.3985L325.961 70.2569C324.478 69.3698 322.873 68.7029 321.197 68.2768L320.84 63.885H312.771L312.429 68.2768C310.749 68.7033 309.139 69.3702 307.65 70.2569L304.3 67.3985L298.628 73.0706L301.486 76.4203C300.6 77.9096 299.933 79.5192 299.506 81.1992L295.04 81.5416V89.566L299.506 89.9084C299.927 91.5902 300.595 93.2006 301.486 94.6873L298.628 98.0519L304.3 103.709L307.65 100.851C309.139 101.737 310.749 102.404 312.429 102.831L312.771 107.223H320.796L321.153 102.831C322.828 102.405 324.433 101.738 325.917 100.851L329.281 103.709L334.939 98.0519L332.125 94.6873C333.013 93.1988 333.68 91.589 334.105 89.9084L338.497 89.566ZM316.835 93.3028C315.31 93.3028 313.819 92.8505 312.551 92.0031C311.283 91.1557 310.294 89.9513 309.711 88.5422C309.127 87.1331 308.974 85.5825 309.272 84.0865C309.569 82.5906 310.304 81.2165 311.382 80.138C312.461 79.0595 313.835 78.325 315.331 78.0275C316.827 77.7299 318.377 77.8826 319.787 78.4663C321.196 79.05 322.4 80.0384 323.247 81.3066C324.095 82.5748 324.547 84.0658 324.547 85.591C324.549 86.6043 324.351 87.608 323.964 88.5445C323.577 89.481 323.009 90.3319 322.293 91.0484C321.576 91.7649 320.725 92.3329 319.789 92.7198C318.852 93.1066 317.849 93.3047 316.835 93.3028Z" fill="#543BF5"/>
<path opacity="0.5" d="M338.498 89.566V81.5416L334.106 81.1992C333.679 79.5192 333.013 77.9096 332.126 76.4203L334.984 73.0706L329.327 67.3985L325.962 70.2569C324.479 69.3698 322.874 68.7029 321.198 68.2768L320.841 63.885H312.772L312.43 68.2768C310.75 68.7033 309.14 69.3702 307.651 70.2569L304.301 67.3985L298.629 73.0706L301.487 76.4203C300.601 77.9096 299.934 79.5192 299.507 81.1992L295.041 81.5416V89.566L299.507 89.9084C299.928 91.5902 300.596 93.2006 301.487 94.6873L298.629 98.0519L304.301 103.709L307.651 100.851C309.14 101.737 310.75 102.404 312.43 102.831L312.772 107.223H320.796L321.154 102.831C322.829 102.405 324.434 101.738 325.918 100.851L329.282 103.709L334.94 98.0519L332.126 94.6873C333.014 93.1988 333.681 91.589 334.106 89.9084L338.498 89.566ZM316.836 93.3028C315.311 93.3028 313.82 92.8505 312.552 92.0031C311.284 91.1557 310.295 89.9513 309.712 88.5422C309.128 87.1331 308.975 85.5825 309.273 84.0865C309.57 82.5906 310.305 81.2165 311.383 80.138C312.462 79.0595 313.836 78.325 315.332 78.0275C316.828 77.7299 318.378 77.8826 319.788 78.4663C321.197 79.05 322.401 80.0384 323.248 81.3066C324.096 82.5748 324.548 84.0658 324.548 85.591C324.55 86.6043 324.352 87.608 323.965 88.5445C323.578 89.481 323.01 90.3319 322.294 91.0484C321.577 91.7649 320.726 92.3329 319.79 92.7198C318.853 93.1066 317.85 93.3047 316.836 93.3028Z" fill="white"/>
<path d="M338.497 89.566V81.5416L334.105 81.1992C333.678 79.5192 333.012 77.9096 332.125 76.4203L334.983 73.0706L329.326 67.3985L325.961 70.2569C324.478 69.3698 322.873 68.7029 321.197 68.2768L320.84 63.885H312.771L312.429 68.2768C310.749 68.7033 309.139 69.3702 307.65 70.2569L304.3 67.3985L298.628 73.0706L301.486 76.4203C300.6 77.9096 299.933 79.5192 299.506 81.1992L295.04 81.5416V89.566L299.506 89.9084C299.927 91.5902 300.595 93.2006 301.486 94.6873L298.628 98.0519L304.3 103.709L307.65 100.851C309.139 101.737 310.749 102.404 312.429 102.831L312.771 107.223H320.796L321.153 102.831C322.828 102.405 324.433 101.738 325.917 100.851L329.281 103.709L334.939 98.0519L332.125 94.6873C333.013 93.1988 333.68 91.589 334.105 89.9084L338.497 89.566ZM316.835 93.3028C315.31 93.3028 313.819 92.8505 312.551 92.0031C311.283 91.1557 310.294 89.9513 309.711 88.5422C309.127 87.1331 308.974 85.5825 309.272 84.0865C309.569 82.5906 310.304 81.2165 311.382 80.138C312.461 79.0595 313.835 78.325 315.331 78.0275C316.827 77.7299 318.377 77.8826 319.787 78.4663C321.196 79.05 322.4 80.0384 323.247 81.3066C324.095 82.5748 324.547 84.0658 324.547 85.591C324.549 86.6043 324.351 87.608 323.964 88.5445C323.577 89.481 323.009 90.3319 322.293 91.0484C321.576 91.7649 320.725 92.3329 319.789 92.7198C318.852 93.1066 317.849 93.3047 316.835 93.3028Z" stroke="#263238" stroke-linecap="round" stroke-linejoin="round"/>
<path d="M300.712 117.495V111.733L297.556 111.48C297.232 110.271 296.731 109.117 296.067 108.056L298.122 105.644L294.058 101.565L291.646 103.62C290.58 102.956 289.421 102.454 288.207 102.131L287.954 98.9597H282.252L281.999 102.131C280.785 102.454 279.626 102.956 278.56 103.62L276.148 101.565L272.084 105.644L274.138 108.056C273.475 109.117 272.973 110.271 272.649 111.48L269.493 111.733V117.495L272.649 117.748C272.973 118.961 273.475 120.12 274.138 121.187L272.084 123.599L276.148 127.678L278.53 125.608C279.597 126.272 280.755 126.773 281.969 127.097L282.222 130.253H287.984L288.237 127.097C289.45 126.773 290.609 126.272 291.676 125.608L294.087 127.678L298.152 123.599L296.097 121.187C296.76 120.12 297.262 118.961 297.586 117.748L300.712 117.495ZM285.14 120.1C284.04 120.103 282.965 119.779 282.049 119.17C281.134 118.561 280.42 117.694 279.998 116.679C279.575 115.664 279.464 114.546 279.678 113.467C279.892 112.389 280.421 111.398 281.199 110.62C281.976 109.843 282.967 109.314 284.045 109.1C285.124 108.886 286.242 108.997 287.257 109.419C288.272 109.842 289.139 110.556 289.748 111.471C290.358 112.387 290.681 113.462 290.678 114.562C290.678 116.031 290.095 117.439 289.056 118.478C288.017 119.517 286.609 120.1 285.14 120.1Z" fill="#543BF5"/>
<path opacity="0.7" d="M300.712 117.495V111.733L297.556 111.48C297.232 110.271 296.731 109.117 296.067 108.056L298.122 105.644L294.058 101.565L291.646 103.62C290.58 102.956 289.421 102.454 288.207 102.131L287.954 98.9597H282.252L281.999 102.131C280.785 102.454 279.626 102.956 278.56 103.62L276.148 101.565L272.084 105.644L274.138 108.056C273.475 109.117 272.973 110.271 272.649 111.48L269.493 111.733V117.495L272.649 117.748C272.973 118.961 273.475 120.12 274.138 121.187L272.084 123.599L276.148 127.678L278.53 125.608C279.597 126.272 280.755 126.773 281.969 127.097L282.222 130.253H287.984L288.237 127.097C289.45 126.773 290.609 126.272 291.676 125.608L294.087 127.678L298.152 123.599L296.097 121.187C296.76 120.12 297.262 118.961 297.586 117.748L300.712 117.495ZM285.14 120.1C284.04 120.103 282.965 119.779 282.049 119.17C281.134 118.561 280.42 117.694 279.998 116.679C279.575 115.664 279.464 114.546 279.678 113.467C279.892 112.389 280.421 111.398 281.199 110.62C281.976 109.843 282.967 109.314 284.045 109.1C285.124 108.886 286.242 108.997 287.257 109.419C288.272 109.842 289.139 110.556 289.748 111.471C290.358 112.387 290.681 113.462 290.678 114.562C290.678 116.031 290.095 117.439 289.056 118.478C288.017 119.517 286.609 120.1 285.14 120.1Z" fill="white"/>
<path d="M300.712 117.495V111.733L297.556 111.48C297.232 110.271 296.731 109.117 296.067 108.056L298.122 105.644L294.058 101.565L291.646 103.62C290.58 102.956 289.421 102.454 288.207 102.131L287.954 98.9597H282.252L281.999 102.131C280.785 102.454 279.626 102.956 278.56 103.62L276.148 101.565L272.084 105.644L274.138 108.056C273.475 109.117 272.973 110.271 272.649 111.48L269.493 111.733V117.495L272.649 117.748C272.973 118.961 273.475 120.12 274.138 121.187L272.084 123.599L276.148 127.678L278.53 125.608C279.597 126.272 280.755 126.773 281.969 127.097L282.222 130.253H287.984L288.237 127.097C289.45 126.773 290.609 126.272 291.676 125.608L294.087 127.678L298.152 123.599L296.097 121.187C296.76 120.12 297.262 118.961 297.586 117.748L300.712 117.495ZM285.14 120.1C284.04 120.103 282.965 119.779 282.049 119.17C281.134 118.561 280.42 117.694 279.998 116.679C279.575 115.664 279.464 114.546 279.678 113.467C279.892 112.389 280.421 111.398 281.199 110.62C281.976 109.843 282.967 109.314 284.045 109.1C285.124 108.886 286.242 108.997 287.257 109.419C288.272 109.842 289.139 110.556 289.748 111.471C290.358 112.387 290.681 113.462 290.678 114.562C290.678 116.031 290.095 117.439 289.056 118.478C288.017 119.517 286.609 120.1 285.14 120.1Z" stroke="#263238" stroke-linecap="round" stroke-linejoin="round"/>
<path d="M426.705 304.095L416.135 312.15C399.669 305.808 400.726 304.378 384.975 302.101C376.817 300.924 359.92 301.416 345.717 302.101C332.884 302.756 322.239 303.589 322.239 303.589C322.239 303.589 353.637 272.325 362.272 267.755C370.907 263.184 408.825 246.912 410.016 246.376C410.016 246.376 438.615 278.28 426.705 304.095Z" fill="#FFC000"/>
<path opacity="0.2" d="M426.706 304.095L416.136 312.15C399.67 305.808 400.727 304.378 384.976 302.101C376.818 300.924 359.92 301.416 345.718 302.101C363.389 289.878 411.223 299.897 411.223 299.897C411.223 299.897 403.779 290.473 403.243 271.373C402.677 252.987 409.541 246.853 410.062 246.406C410.062 246.406 438.616 278.28 426.706 304.095Z" fill="black"/>
<path d="M322.239 303.679C322.239 303.679 353.637 272.415 362.272 267.845C370.907 263.274 410.046 246.451 410.046 246.451C410.046 246.451 438.615 278.281 426.705 304.096L416.135 312.15" stroke="#263238" stroke-linecap="round" stroke-linejoin="round"/>
<path d="M473.14 255.041L425.172 298.587C402.663 279.427 409.913 250.574 409.913 250.574L427.152 238.471L447.995 223.851C454.939 227.148 461.364 231.441 467.066 236.595C472.47 241.895 476.192 248.356 473.14 255.041Z" fill="white"/>
<path opacity="0.2" d="M467.036 236.595C466.072 239.256 464.348 241.575 462.079 243.265C446.566 256.113 433.882 246.391 427.152 238.471L447.995 223.852C454.928 227.15 461.343 231.444 467.036 236.595Z" fill="#543BF5"/>
<path d="M473.14 255.041L425.172 298.587C402.663 279.427 409.913 250.574 409.913 250.574L427.152 238.471L447.995 223.851C454.939 227.148 461.364 231.441 467.066 236.595C472.47 241.895 476.192 248.356 473.14 255.041Z" stroke="#263238" stroke-linecap="round" stroke-linejoin="round"/>
<path d="M453.786 250.188C453.786 250.188 445.896 248.401 440.119 237.235C434.343 226.07 435.013 173.487 436.308 163.066C437.603 152.644 457.568 146.913 458.506 157.394C458.654 158.987 459.265 162.113 460.173 166.326C461.364 171.73 463.031 178.921 464.818 186.871C470.773 213.505 478.217 248.773 473.14 255.041" fill="white"/>
<path opacity="0.2" d="M464.818 186.871C455.99 180.336 449.737 168.038 449.737 168.038L460.159 166.326C461.364 171.731 463.032 178.921 464.818 186.871Z" fill="#543BF5"/>
<path d="M453.786 250.188C453.786 250.188 445.896 248.401 440.119 237.235C434.343 226.07 435.013 173.487 436.308 163.066C437.603 152.644 457.568 146.913 458.506 157.394C458.654 158.987 459.265 162.113 460.173 166.326C461.364 171.73 463.031 178.921 464.818 186.871C470.773 213.505 478.217 248.773 473.14 255.041" stroke="#263238" stroke-linecap="round" stroke-linejoin="round"/>
<path d="M515.793 93.3028C515.793 93.3028 515.793 93.4219 515.793 93.5857C515.019 102.027 504.687 100.434 491.065 102.786C480.644 104.573 467.126 112.969 457.166 120.056C449.321 125.624 443.768 130.373 443.768 130.373C443.768 130.373 432.334 122.765 422.002 101.61C422.002 101.61 459.399 78.1324 463.762 49.0868C467.201 26.3089 500.206 48.6253 512.622 79.77C515.004 85.859 516.002 90.236 515.793 93.3028Z" fill="white"/>
<path opacity="0.15" d="M515.747 93.5558C514.973 101.997 504.641 100.404 491.019 102.756C480.598 104.543 467.08 112.939 457.12 120.026C452.654 117.346 450.078 114.756 451.165 112.582C455.765 102.384 473.065 99.1089 473.065 99.1089C473.065 99.1089 471.576 92.4244 474.285 89.1938C476.995 85.9632 486.895 92.4244 501.083 97.4564C513.663 101.908 515.509 95.0297 515.747 93.5558Z" fill="black"/>
<path d="M515.793 93.3028C515.793 93.3028 515.793 93.4219 515.793 93.5857C515.019 102.027 504.687 100.434 491.065 102.786C480.644 104.573 467.126 112.969 457.166 120.056C449.321 125.624 443.768 130.373 443.768 130.373C443.768 130.373 432.334 122.765 422.002 101.61C422.002 101.61 459.399 78.1324 463.762 49.0868C467.201 26.3089 500.206 48.6253 512.622 79.77C515.004 85.859 516.002 90.236 515.793 93.3028Z" stroke="#263238" stroke-linecap="round" stroke-linejoin="round"/>
<path d="M476.833 67.9942C485.989 64.5403 489.517 58.3173 491.274 59.7167C493.031 61.1162 499.403 65.6718 498.375 68.4408C497.348 71.2099 489.115 80.6784 488.296 82.3905" stroke="#263238" stroke-linecap="round" stroke-linejoin="round"/>
<path d="M472.575 43.6377C467.647 44.0992 468.302 57.0365 480.376 73.0108C492.45 88.9851 504.375 96.2354 509.66 94.4191C514.945 92.6028 511.282 85.6503 511.282 85.6503" stroke="#263238" stroke-linecap="round" stroke-linejoin="round"/>
<path d="M460.842 120.1C460.842 120.1 437.871 137.444 433.002 137.281C428.134 137.117 421.45 136.998 415.033 128.437C410.076 121.812 410.805 116.096 412.234 112.061C412.605 111.007 413.033 109.973 413.515 108.964C414.512 106.791 433.509 87.6604 433.509 87.6604L438.228 88.9109C438.228 88.9109 441.295 106.076 459.994 117.986L460.842 120.1Z" fill="#543BF5"/>
<path opacity="0.2" d="M460.842 120.101C460.842 120.101 437.871 137.444 433.002 137.281C428.134 137.117 421.45 136.998 415.033 128.438C410.076 121.813 410.805 116.096 412.234 112.061C413.425 116.721 415.718 123.406 419.395 126.056C425.276 130.313 449.736 116.632 449.736 116.632C449.736 116.632 436.159 99.913 438.228 88.9111C438.228 88.9111 441.295 106.076 459.994 117.986L460.842 120.101Z" fill="black"/>
<path d="M460.842 120.1C460.842 120.1 437.871 137.444 433.002 137.281C428.134 137.117 421.45 136.998 415.033 128.437C410.076 121.812 410.805 116.096 412.234 112.061C412.605 111.007 413.033 109.973 413.515 108.964C414.512 106.791 433.509 87.6604 433.509 87.6604L438.228 88.9109C438.228 88.9109 441.295 106.076 459.994 117.986L460.842 120.1Z" stroke="#263238" stroke-linecap="round" stroke-linejoin="round"/>
<path opacity="0.15" d="M472.575 43.6377C467.647 44.0992 468.302 57.0365 480.376 73.0108C492.45 88.9851 504.375 96.2354 509.66 94.4191C514.945 92.6028 511.282 85.6503 511.282 85.6503C508.42 75.846 503.272 66.8609 496.261 59.4334C482.49 44.7394 472.575 43.6377 472.575 43.6377Z" fill="black"/>
<path d="M479.304 146.987C478.768 153.597 461.126 177.671 449.737 172.46L479.304 146.987Z" fill="white"/>
<path d="M479.304 146.987C478.768 153.597 461.126 177.671 449.737 172.46" stroke="#263238" stroke-linecap="round" stroke-linejoin="round"/>
<path d="M436.518 135.36C436.518 135.36 445.599 160.669 452.149 165.254C458.7 169.84 475.642 155.801 474.124 153.344C472.605 150.888 456.258 135.747 453.638 123.375C453.638 123.45 445.927 124.566 436.518 135.36Z" fill="#543BF5"/>
<path opacity="0.2" d="M436.517 135.36C436.517 135.36 445.598 160.669 452.149 165.254C458.699 169.84 475.641 155.801 474.123 153.344C472.604 150.888 456.257 135.747 453.637 123.376C453.637 123.45 445.926 124.567 436.517 135.36Z" fill="black"/>
<path d="M436.518 135.36C436.518 135.36 445.599 160.669 452.149 165.254C458.7 169.84 475.642 155.801 474.124 153.344C472.605 150.888 456.258 135.747 453.638 123.375C453.638 123.45 445.927 124.566 436.518 135.36Z" stroke="#263238" stroke-linecap="round" stroke-linejoin="round"/>
<path d="M478.931 149.101C480.419 143.891 476.698 145.29 477.308 140.407C477.918 135.524 474.762 135.524 473.765 130.462C472.767 125.4 469.656 125.907 467.81 121.738C465.964 117.57 461.438 119.237 457.031 121.277C452.624 123.316 446.699 132.978 446.699 132.978C445.836 139.216 451.046 137.921 451.046 137.921C447.578 144.308 453.354 145.722 453.354 145.722C453.041 152.6 457.195 151.677 457.195 151.677C457.132 152.56 457.403 153.434 457.955 154.126C458.506 154.818 459.298 155.278 460.172 155.414C462.152 155.831 477.382 154.342 478.931 149.101Z" fill="white" stroke="#263238" stroke-linecap="round" stroke-linejoin="round"/>
<path d="M451.092 137.966C451.092 137.966 459.503 129.033 462.079 128.065" stroke="#263238" stroke-linecap="round" stroke-linejoin="round"/>
<path d="M453.399 145.722C457.171 141.857 461.796 138.931 466.902 137.176" stroke="#263238" stroke-linecap="round" stroke-linejoin="round"/>
<path d="M457.181 151.736C457.181 151.736 468.346 146.243 469.999 145.781" stroke="#263238" stroke-linecap="round" stroke-linejoin="round"/>
<path d="M442.472 171.284C442.472 171.284 434.284 163.706 432.795 160.475C431.306 157.245 428.448 143.414 430.488 139.633C432.527 135.851 438.557 129.718 439.495 126.74C440.433 123.763 445.643 130.283 439.688 142.193C439.688 142.193 446.804 150.798 445.643 160.237" fill="white"/>
<path d="M442.472 171.284C442.472 171.284 434.284 163.706 432.795 160.475C431.306 157.245 428.448 143.414 430.488 139.633C432.527 135.851 438.557 129.718 439.495 126.74C440.433 123.763 445.643 130.283 439.688 142.193C439.688 142.193 446.804 150.798 445.643 160.237" stroke="#263238" stroke-linecap="round" stroke-linejoin="round"/>
<path opacity="0.15" d="M515.793 93.3027C515.793 93.3027 515.793 93.4218 515.793 93.5856C515.801 93.4915 515.801 93.3968 515.793 93.3027Z" fill="black"/>
<path d="M437.602 391.649C437.602 391.649 434.327 392.974 429.608 387.078C420.675 375.853 407.202 348.892 398.344 335.97C394.562 330.431 384.111 324.983 372.812 320.412C360.726 315.691 348.379 311.669 335.831 308.368C335.831 308.368 383.382 305.391 395.456 309.068C405.877 312.194 442.917 333.364 453.517 339.453L456.346 341.091C456.346 341.091 457.924 363.511 437.602 391.649Z" fill="#543BF5"/>
<path opacity="0.2" d="M437.604 391.649C437.604 391.649 434.329 392.974 429.609 387.079C420.677 375.854 407.204 348.892 398.346 335.97C394.564 330.432 384.113 324.983 372.813 320.412C415.987 330.268 431.232 373.561 431.232 373.561C431.232 373.561 433.525 348.982 453.474 339.454L456.303 341.091C456.303 341.091 457.926 363.512 437.604 391.649Z" fill="black"/>
<path d="M335.861 308.368C335.861 308.368 383.412 305.391 395.486 309.068C407.56 312.745 456.331 341.091 456.331 341.091C456.331 341.091 457.924 363.512 437.603 391.709" stroke="#263238" stroke-linecap="round" stroke-linejoin="round"/>
<path d="M516.91 410.973C514.454 412.641 509.749 412.626 503.78 411.524C497.382 410.214 491.088 408.443 484.947 406.224C468.303 400.144 451.994 393.187 436.086 385.381C436.086 385.381 436.16 354.832 454.115 342.997C454.115 342.997 477.399 358.941 492.391 362.886C504.956 366.266 516.91 410.973 516.91 410.973Z" fill="white"/>
<path opacity="0.2" d="M503.779 411.524C497.382 410.215 491.088 408.443 484.946 406.224C481.597 390.756 491.333 373.561 491.333 373.561C491.759 387.146 496.079 400.323 503.779 411.524Z" fill="#543BF5"/>
<path d="M516.91 410.973C514.454 412.641 509.749 412.626 503.78 411.524C497.382 410.214 491.088 408.443 484.947 406.224C468.303 400.144 451.994 393.187 436.086 385.381C436.086 385.381 436.16 354.832 454.115 342.997C454.115 342.997 477.399 358.941 492.391 362.886C504.956 366.266 516.91 410.973 516.91 410.973Z" stroke="#263238" stroke-linecap="round" stroke-linejoin="round"/>
<path d="M495.47 402.16C493.946 398.289 492.911 394.243 492.389 390.116L495.47 402.16Z" fill="white"/>
<path d="M495.47 402.16C493.946 398.289 492.911 394.243 492.389 390.116" stroke="#263238" stroke-linecap="round" stroke-linejoin="round"/>
<path d="M495.485 350.559C502.095 351.601 508.17 365.834 512.264 370.896C512.264 370.896 523.921 376.33 525.915 381.466C527.91 386.602 535.845 407.117 520.08 411.33C511.013 413.757 504.239 413.34 499.535 408.531" fill="white"/>
<path d="M495.485 350.559C502.095 351.601 508.17 365.834 512.264 370.896C512.264 370.896 523.921 376.33 525.915 381.466C527.91 386.602 535.845 407.117 520.08 411.33C511.013 413.757 504.239 413.34 499.535 408.531" stroke="#263238" stroke-linecap="round" stroke-linejoin="round"/>
<path d="M496.976 330.327V330.804C496.902 335.181 495.666 343.86 492.882 359.239C490.277 373.62 489.785 374.737 488.044 375.466C485.915 376.345 470.655 379.739 464.149 381.138L462.735 381.436C461.797 381.645 459.325 380.349 459.489 379.411C460.263 374.662 465.563 331.771 467.692 330.283C470.923 328.168 491.81 326.174 494.133 326.814C494.841 327.146 495.465 327.635 495.958 328.244C496.45 328.853 496.798 329.565 496.976 330.327Z" fill="#999999"/>
<path opacity="0.2" d="M496.975 330.804C496.901 335.181 495.665 343.86 492.881 359.239C490.276 373.62 489.785 374.737 488.043 375.466C485.914 376.345 470.654 379.739 464.148 381.138C464.937 374.93 467.319 357.586 472.232 333.826L496.975 330.804Z" fill="black"/>
<path d="M496.976 330.327V330.804C496.902 335.181 495.666 343.86 492.882 359.239C490.277 373.62 489.785 374.737 488.044 375.466C485.915 376.345 470.655 379.739 464.149 381.138L462.735 381.436C461.797 381.645 459.325 380.349 459.489 379.411C460.263 374.662 465.563 331.771 467.692 330.283C470.923 328.168 491.81 326.174 494.133 326.814C494.841 327.146 495.465 327.635 495.958 328.244C496.45 328.853 496.798 329.565 496.976 330.327Z" stroke="#263238" stroke-linecap="round" stroke-linejoin="round"/>
<path d="M463.851 378.086C463.851 378.086 470.788 337.652 471.413 335.165C472.039 332.679 472.664 333.677 493.507 330.952" stroke="#263238" stroke-linecap="round" stroke-linejoin="round"/>
<path d="M492.39 390.115C492.39 390.115 481.597 393.971 482.341 387.391C481.626 386.873 481.032 386.205 480.603 385.434C480.173 384.662 479.918 383.806 479.855 382.925C480 380.917 480.595 378.969 481.597 377.223C481.597 377.223 477.503 384.294 474.019 380.2C473.111 379.128 476.818 371.446 476.818 371.446C476.386 371.73 475.893 371.911 475.38 371.972C474.866 372.034 474.345 371.977 473.858 371.804C473.371 371.63 472.93 371.347 472.57 370.975C472.211 370.603 471.942 370.153 471.786 369.66C471.295 368.484 476.982 357.914 478.232 357.125C482.401 354.504 493.254 348.907 496.976 351.036C500.697 353.165 501.933 359.849 504.166 362.335C506.399 364.822 505.164 373.248 504.166 379.203" fill="white"/>
<path d="M492.39 390.115C492.39 390.115 481.597 393.971 482.341 387.391C481.626 386.873 481.032 386.205 480.603 385.434C480.173 384.662 479.918 383.806 479.855 382.925C480 380.917 480.595 378.969 481.597 377.223C481.597 377.223 477.503 384.294 474.019 380.2C473.111 379.128 476.818 371.446 476.818 371.446C476.386 371.73 475.893 371.911 475.38 371.972C474.866 372.034 474.345 371.977 473.858 371.804C473.371 371.63 472.93 371.347 472.57 370.975C472.211 370.603 471.942 370.153 471.786 369.66C471.295 368.484 476.982 357.914 478.232 357.125C482.401 354.504 493.254 348.907 496.976 351.036C500.697 353.165 501.933 359.849 504.166 362.335C506.399 364.822 505.164 373.248 504.166 379.203" stroke="#263238" stroke-linecap="round" stroke-linejoin="round"/>
<path d="M476.816 371.447C476.816 371.447 480.717 364.688 481.833 363.824C482.95 362.961 492.389 360.222 492.389 360.222" fill="white"/>
<path d="M476.816 371.447C476.816 371.447 480.717 364.688 481.834 363.824C482.95 362.961 492.389 360.222 492.389 360.222" stroke="#263238" stroke-linecap="round" stroke-linejoin="round"/>
<path d="M481.596 377.223C483.948 374.618 485.318 371.611 486.3 371.447C487.283 371.283 494.861 370.152 495.486 369.958" fill="white"/>
<path d="M481.596 377.223C483.948 374.618 485.318 371.611 486.3 371.447C487.283 371.283 494.861 370.152 495.486 369.958" stroke="#263238" stroke-linecap="round" stroke-linejoin="round"/>
<path d="M481.938 387.078C484.574 384.101 488.668 380.945 489.531 380.945C490.395 380.945 495.233 380.32 495.486 380.2" fill="white"/>
<path d="M481.938 387.078C484.574 384.101 488.668 380.945 489.531 380.945C490.395 380.945 495.233 380.32 495.486 380.2" stroke="#263238" stroke-linecap="round" stroke-linejoin="round"/>
<path d="M494.131 388.642C493.348 389.253 492.444 389.689 491.478 389.923C490.513 390.157 489.509 390.182 488.533 389.996" fill="white"/>
<path d="M494.131 388.642C493.348 389.253 492.444 389.689 491.478 389.923C490.513 390.157 489.509 390.182 488.533 389.996" stroke="#263238" stroke-linecap="round" stroke-linejoin="round"/>
<path d="M492.389 390.116C492.389 390.116 502.214 398.319 506.681 388.627L492.389 390.116Z" fill="white"/>
<path d="M492.389 390.116C492.389 390.116 502.214 398.319 506.681 388.627" stroke="#263238" stroke-linecap="round" stroke-linejoin="round"/>
<path d="M251.733 302.994L241.088 302.711C226.587 302.354 201.71 301.818 195.815 302.19C188.382 302.904 181.119 304.841 174.317 307.922L150.304 275.169C153.966 229.777 182.907 224.804 182.907 224.804C182.907 224.804 203.348 248.133 210.792 254.49C218.236 260.847 251.733 302.994 251.733 302.994Z" fill="#543BF5"/>
<path opacity="0.2" d="M241.088 302.711C226.587 302.354 201.71 301.818 195.815 302.19C188.382 302.904 181.119 304.841 174.317 307.922L150.304 275.169C153.966 229.777 182.907 224.804 182.907 224.804C182.907 224.804 184.605 252.599 162.407 271.536C162.407 271.536 169.256 290.771 184.203 294.582C199.15 298.394 228.389 295.267 241.088 302.711Z" fill="black"/>
<path d="M251.733 302.994C251.733 302.994 218.236 260.847 210.792 254.49C203.348 248.133 182.907 224.804 182.907 224.804C182.907 224.804 153.966 229.777 150.304 275.169L174.317 307.922" stroke="#263238" stroke-linecap="round" stroke-linejoin="round"/>
<path d="M181.002 230.268C181.002 230.268 180.481 254.624 153.966 267.725L108.068 202.771C104.837 185.204 140.076 178.653 140.076 178.653L156.69 199.6L181.002 230.268Z" fill="white"/>
<path opacity="0.2" d="M156.706 199.63C141.208 211.882 123.953 198.662 123.953 198.662L140.076 178.683L156.706 199.63Z" fill="#543BF5"/>
<path d="M181.002 230.268C181.002 230.268 180.481 254.624 153.966 267.725L108.068 202.771C104.837 185.204 140.076 178.653 140.076 178.653L156.69 199.6L181.002 230.268Z" stroke="#263238" stroke-linecap="round" stroke-linejoin="round"/>
<path d="M108.068 202.771C106.193 198.752 108.068 189 111.403 177.701C115.229 164.733 120.961 149.697 125.174 138.993C127.497 133.038 129.358 128.378 130.147 126.1C133.63 116.17 151.585 126.592 150.304 137.013C149.024 147.434 152.761 184.162 144.439 193.586C136.116 203.009 128.062 202.816 128.062 202.816" fill="white"/>
<path opacity="0.2" d="M137.202 132.963C137.202 132.963 130.473 173.16 124.012 175.497C119.893 176.652 115.669 177.39 111.402 177.7C115.228 164.733 120.96 149.697 125.173 138.993L137.202 132.963Z" fill="#543BF5"/>
<path d="M108.068 202.771C106.193 198.752 108.068 189 111.403 177.701C115.229 164.733 120.961 149.697 125.174 138.993C127.497 133.038 129.358 128.378 130.147 126.1C133.63 116.17 151.585 126.592 150.304 137.013C149.024 147.434 152.761 184.162 144.439 193.586C136.116 203.009 128.062 202.816 128.062 202.816" stroke="#263238" stroke-linecap="round" stroke-linejoin="round"/>
<path d="M122.523 156.069C122.203 156.515 121.797 156.893 121.33 157.181C120.862 157.47 120.343 157.664 119.8 157.751C119.258 157.838 118.704 157.817 118.17 157.689C117.635 157.562 117.132 157.33 116.687 157.007L53.9662 111.689C53.5208 111.37 53.1429 110.965 52.8544 110.499C52.5659 110.033 52.3725 109.515 52.2853 108.974C52.1981 108.433 52.2189 107.88 52.3464 107.346C52.4739 106.813 52.7057 106.311 53.0283 105.868L114.38 21.0089C115.03 20.1114 116.01 19.5086 117.104 19.3328C118.198 19.157 119.317 19.4224 120.216 20.0709L182.937 65.3886C183.837 66.0365 184.443 67.0151 184.621 68.1094C184.8 69.2037 184.537 70.3241 183.89 71.2245L122.523 156.069Z" fill="#BFBFBF" stroke="#263238" stroke-miterlimit="10"/>
<path d="M136.153 29.6848L130.703 37.2268L163.309 60.7859L168.758 53.2439L136.153 29.6848Z" fill="#543BF5" stroke="#263238" stroke-linecap="round" stroke-linejoin="round"/>
<path d="M117.993 25.2737L58.2666 107.934L118.904 151.747L178.63 69.0872L117.993 25.2737Z" fill="#543BF5"/>
<path opacity="0.7" d="M117.992 25.2739L58.2656 107.934L118.903 151.747L178.629 69.0875L117.992 25.2739Z" fill="white"/>
<path d="M117.993 25.2737L58.2666 107.934L118.904 151.747L178.63 69.0872L117.993 25.2737Z" stroke="#263238" stroke-linecap="round" stroke-linejoin="round"/>
<path d="M162.064 53.6274L158.759 58.2127C158.512 58.55 158.142 58.7755 157.728 58.8397C157.315 58.9039 156.894 58.8016 156.556 58.5552L148.293 52.6002C148.537 51.9305 148.556 51.1997 148.347 50.5184C148.138 49.8371 147.713 49.2425 147.135 48.825C146.557 48.4074 145.86 48.1896 145.147 48.2046C144.435 48.2196 143.746 48.4666 143.187 48.908L134.91 42.953C134.741 42.832 134.598 42.6786 134.489 42.5018C134.381 42.3249 134.308 42.1282 134.276 41.9231C134.244 41.718 134.254 41.5086 134.304 41.3072C134.354 41.1057 134.443 40.9162 134.567 40.7497L137.872 36.1792C138.119 35.8428 138.489 35.6169 138.901 35.5501C139.313 35.4833 139.735 35.5809 140.075 35.8219L161.707 51.4538C162.038 51.698 162.261 52.0619 162.328 52.4679C162.394 52.874 162.3 53.29 162.064 53.6274V53.6274Z" stroke="#263238" stroke-linecap="round" stroke-linejoin="round"/>
<path d="M144.542 142.595C144.542 142.595 154.011 136.64 156.08 133.827C158.149 131.013 163.524 117.882 162.258 113.833C160.993 109.783 156.214 102.578 155.857 99.4811C155.499 96.3845 149.142 101.804 152.745 114.607C152.745 114.607 144.14 121.738 143.5 131.221" fill="white"/>
<path d="M144.542 142.595C144.542 142.595 154.011 136.64 156.08 133.827C158.149 131.013 163.524 117.882 162.258 113.833C160.993 109.783 156.214 102.578 155.857 99.4811C155.499 96.3845 149.142 101.804 152.745 114.607C152.745 114.607 144.14 121.738 143.5 131.221" stroke="#263238" stroke-linecap="round" stroke-linejoin="round"/>
<path d="M139.495 87.7053C139.495 91.7333 138.301 95.6709 136.063 99.0201C133.825 102.369 130.644 104.98 126.923 106.521C123.201 108.063 119.106 108.466 115.156 107.68C111.205 106.894 107.576 104.955 104.728 102.106C101.88 99.2581 99.9399 95.6292 99.154 91.6785C98.3682 87.7279 98.7715 83.6329 100.313 79.9115C101.854 76.1901 104.465 73.0093 107.814 70.7714C111.163 68.5336 115.101 67.3391 119.129 67.3391C121.804 67.3372 124.453 67.8626 126.925 68.8854C129.397 69.9082 131.643 71.4083 133.534 73.2999C135.426 75.1914 136.926 77.4374 137.949 79.9092C138.972 82.381 139.497 85.0302 139.495 87.7053Z" fill="white" stroke="#263238" stroke-linecap="round" stroke-linejoin="round"/>
<path d="M108.991 80.4102L111.492 94.7022L134.255 88.509" fill="white"/>
<path d="M108.991 80.4102L111.492 94.7022L134.255 88.509" stroke="#263238" stroke-linecap="round" stroke-linejoin="round"/>
<path d="M244.511 309.857C244.511 309.857 215.287 314.517 193.298 326.412C188.919 328.719 184.797 331.484 181.001 334.66C170.773 343.428 161.841 361.591 154.204 375.987C147.683 388.255 142.755 393.138 142.755 393.138C122.449 365 124.027 342.52 124.027 342.52L124.22 342.416C127.525 340.481 173.111 314.026 184.872 310.497C196.961 306.924 244.511 309.857 244.511 309.857Z" fill="#FFC000"/>
<path opacity="0.2" d="M193.298 326.412C188.919 328.719 184.797 331.484 181.001 334.66C170.773 343.429 161.841 361.591 154.204 375.988C147.683 388.255 142.755 393.138 142.755 393.138C122.449 365.001 124.027 342.52 124.027 342.52L124.22 342.416C125.709 341.717 136.309 338.218 150.288 365.045C150.303 365.105 159.965 333.558 193.298 326.412Z" fill="black"/>
<path d="M95.1303 277.67C95.1303 277.67 82.3568 274.365 86.1978 286.335C90.0387 298.304 103.72 297.917 103.72 297.917" fill="white"/>
<path d="M95.1303 277.67C95.1303 277.67 82.3568 274.365 86.1978 286.335C90.0387 298.304 103.72 297.917 103.72 297.917" stroke="#263238" stroke-linecap="round" stroke-linejoin="round"/>
<path d="M244.513 309.857C244.513 309.857 196.962 306.88 184.889 310.557C172.815 314.234 124.043 342.58 124.043 342.58C124.043 342.58 122.465 365.001 142.772 393.198" stroke="#263238" stroke-linecap="round" stroke-linejoin="round"/>
<path d="M144.304 386.93C144.304 386.93 73.5732 412.551 62.0205 398.631C65.3132 389.607 69.4504 380.914 74.3772 372.667C78.2033 366.623 82.5951 361.576 87.0018 360.415C93.521 358.533 99.9195 356.256 106.162 353.597C116.881 349.13 126.275 344.545 126.275 344.545C144.215 356.381 144.304 386.93 144.304 386.93Z" fill="white"/>
<path opacity="0.2" d="M106.163 353.597C104.138 363.169 98.4511 381.02 84.1739 379.858C78.6358 379.412 75.7178 376.553 74.3779 372.668C78.204 366.623 82.5958 361.576 87.0026 360.415C93.5217 358.533 99.9203 356.256 106.163 353.597Z" fill="#543BF5"/>
<path d="M144.304 386.93C144.304 386.93 73.5732 412.551 62.0205 398.631C65.3132 389.607 69.4504 380.914 74.3772 372.667C78.2033 366.623 82.5951 361.576 87.0018 360.415C93.521 358.533 99.9195 356.256 106.162 353.597C116.881 349.13 126.275 344.545 126.275 344.545C144.215 356.381 144.304 386.93 144.304 386.93Z" stroke="#263238" stroke-linecap="round" stroke-linejoin="round"/>
<path d="M67.4544 401.698C50.8102 402.443 49.7531 363.259 58.1199 305.063C58.1199 305.063 70.953 279.591 76.8783 279.248C78.4712 279.159 80.6746 279.114 83.0268 279.114C89.4136 279.114 96.9764 279.248 96.9764 279.248C96.9764 279.248 100.401 294.002 100.43 299.019C100.43 306.537 97.17 307.386 97.17 307.386C97.3486 314.472 91.6169 315.187 85.4684 314.219C85.3607 314.533 85.2157 314.833 85.0366 315.112C84.2178 316.482 82.0591 319.028 76.64 319.713C76.5507 342.416 98.5992 376.791 86.9273 384.295" fill="white"/>
<path opacity="0.2" d="M100.431 299.019C100.431 306.537 97.1702 307.386 97.1702 307.386C97.3489 314.472 91.6172 315.187 85.4686 314.219C85.3609 314.533 85.216 314.833 85.0369 315.112L86.9276 309.41C87.925 309.853 89.0437 309.943 90.0987 309.663C93.8205 307.832 91.8703 301.416 91.8703 301.416C92.5983 301.136 93.2356 300.661 93.7132 300.045C94.1909 299.428 94.4906 298.692 94.5798 297.917C95.1604 294.94 88.6248 293.004 88.6248 293.004C90.6644 289.595 86.1237 286.335 86.1237 286.335C87.7464 283.893 85.6324 281.213 82.9824 279.114C89.3692 279.114 96.932 279.248 96.932 279.248C96.932 279.248 100.401 294.002 100.431 299.019Z" fill="#543BF5"/>
<path d="M67.4544 401.698C50.8102 402.443 49.7531 363.259 58.1199 305.063C58.1199 305.063 70.953 279.591 76.8783 279.248C78.4712 279.159 80.6746 279.114 83.0268 279.114C89.4136 279.114 96.9764 279.248 96.9764 279.248C96.9764 279.248 100.401 294.002 100.43 299.019C100.43 306.537 97.17 307.386 97.17 307.386C97.3486 314.472 91.6169 315.187 85.4684 314.219C85.3607 314.533 85.2157 314.833 85.0366 315.112C84.2178 316.482 82.0591 319.028 76.64 319.713C76.5507 342.416 98.5992 376.791 86.9273 384.295" stroke="#263238" stroke-linecap="round" stroke-linejoin="round"/>
<path d="M97.0517 296.845C94.9972 293.064 93.0172 295.252 83.1318 292.855C86.895 293.205 90.6887 293.024 94.4017 292.319" stroke="#263238" stroke-linecap="round" stroke-linejoin="round"/>
<path d="M82.0146 285.516C83.3545 286.111 89.1756 285.679 91.9 285.516" stroke="#263238" stroke-linecap="round" stroke-linejoin="round"/>
<path d="M85.4678 301.475C85.4678 301.192 93.7899 301.892 95.1447 302.875C96.4994 303.857 97.348 307.549 97.348 307.549" stroke="#263238" stroke-linecap="round" stroke-linejoin="round"/>
<path d="M91.8699 309.41C91.2446 309.976 86.9272 309.41 86.9272 309.41C86.7392 311.093 86.2341 312.724 85.4385 314.219" stroke="#263238" stroke-linecap="round" stroke-linejoin="round"/>
<path d="M137.202 272.936C137.202 285.144 132.215 295.773 124.861 301.356H101.264C93.8201 295.773 88.9072 285.144 88.9072 272.936C88.9072 272.43 88.9072 271.938 88.9072 271.447H137.098C137.173 271.953 137.202 272.43 137.202 272.936Z" fill="#757575"/>
<path opacity="0.2" d="M119.13 299.957L119.026 301.356H101.265C93.8211 295.773 88.9082 285.144 88.9082 272.936C88.9082 272.43 88.9082 271.938 88.9082 271.447H94.1486C97.8258 280.335 105.835 295.58 119.13 299.957Z" fill="black"/>
<path d="M137.202 272.936C137.202 285.144 132.215 295.773 124.861 301.356H101.264C93.8201 295.773 88.9072 285.144 88.9072 272.936C88.9072 272.43 88.9072 271.938 88.9072 271.447H137.098C137.173 271.953 137.202 272.43 137.202 272.936Z" stroke="#263238" stroke-linecap="round" stroke-linejoin="round"/>
<path d="M126.737 299.957H99.3738L98.1084 303.619H128.003L126.737 299.957Z" fill="#757575" stroke="#263238" stroke-linecap="round" stroke-linejoin="round"/>
<path opacity="0.2" d="M128.003 303.619L126.737 299.957H99.3738L98.1084 303.619" fill="black"/>
<path d="M105.313 241.747C101.159 248.878 112.295 255.592 106.802 265.373" stroke="#263238" stroke-linecap="round" stroke-linejoin="round"/>
<path d="M112.444 241.747C108.29 248.893 119.426 255.592 113.933 265.373" stroke="#263238" stroke-linecap="round" stroke-linejoin="round"/>
<path d="M120.083 241.747C115.929 248.893 127.065 255.592 121.571 265.373" stroke="#263238" stroke-linecap="round" stroke-linejoin="round"/>
<path d="M399.565 346.57C388.98 328.511 345.196 312.805 296.558 310.84H296.171L291.392 310.706H286.539L281.76 310.84H281.343C232.721 312.775 188.951 328.496 178.366 346.57C167.067 365.849 150.333 396.875 150.333 396.875C159.712 412.06 195.74 414.1 195.74 414.1L197.66 454.951H380.271L382.192 414.1C382.192 414.1 418.219 412.06 427.599 396.875C427.599 396.875 410.865 365.849 399.565 346.57Z" fill="#543BF5" stroke="#263238" stroke-linecap="round" stroke-linejoin="round"/>
<path d="M235.268 440.182C235.268 440.182 151.079 454.311 145.019 442.773C144.376 441.485 143.962 440.094 143.798 438.664C141.818 424.744 153.892 397.291 153.892 397.291C163.257 396.398 173.082 398.78 180.943 401.758C186.44 403.682 191.707 406.209 196.649 409.291L196.024 410.66L195.816 411.092L215.482 411.717L233.079 412.283H233.481L235.268 440.182Z" fill="white"/>
<path opacity="0.2" d="M196.024 410.66C176.76 411.032 169.45 413.638 169.45 413.638C172.51 408.99 176.408 404.952 180.943 401.728C186.442 403.662 191.709 406.198 196.65 409.291L196.024 410.66Z" fill="#543BF5"/>
<path opacity="0.2" d="M235.268 440.182C235.268 440.182 151.079 454.31 145.02 442.772C144.376 441.485 143.963 440.094 143.799 438.664C145.872 439.511 148.069 440.014 150.305 440.152C161.321 440.539 216.882 433.676 216.882 433.676L215.482 411.732V411.017C220.812 411.285 226.678 411.687 233.124 412.298H233.526L235.268 440.182Z" fill="#543BF5"/>
<path d="M235.268 440.182C235.268 440.182 151.079 454.311 145.019 442.773C144.376 441.485 143.962 440.094 143.798 438.664C141.818 424.744 153.892 397.291 153.892 397.291C163.257 396.398 173.082 398.78 180.943 401.758C186.44 403.682 191.707 406.209 196.649 409.291L196.024 410.66L195.816 411.092L215.482 411.717L233.079 412.283H233.481L235.268 440.182Z" stroke="#263238" stroke-linecap="round" stroke-linejoin="round"/>
<path d="M195.815 411.092C195.815 411.092 175.925 410.556 167.454 414.442" stroke="#263238" stroke-linecap="round" stroke-linejoin="round"/>
<path d="M374.778 405.45C374.778 405.45 366.977 369.392 382.088 351.944" stroke="#263238" stroke-linecap="round" stroke-linejoin="round"/>
<path d="M388.013 369.898C388.013 369.898 377.786 377.342 375.925 389.386" stroke="#263238" stroke-linecap="round" stroke-linejoin="round"/>
<path d="M195.813 347.746C204.25 366.463 206.296 387.435 201.635 407.43" stroke="#263238" stroke-linecap="round" stroke-linejoin="round"/>
<path d="M185.796 360.222C185.796 360.222 196.708 366.861 201.636 377.223" stroke="#263238" stroke-linecap="round" stroke-linejoin="round"/>
<path d="M322.24 315.127C322.24 315.127 306.102 356.321 258.075 333.99" stroke="#263238" stroke-linecap="round" stroke-linejoin="round"/>
<path d="M397.064 343.056C390.036 347.714 384.733 354.55 381.968 362.514" stroke="#263238" stroke-linecap="round" stroke-linejoin="round"/>
<path d="M180.838 343.056C186.547 346.531 191.045 351.683 193.716 357.81" stroke="#263238" stroke-linecap="round" stroke-linejoin="round"/>
<path d="M251.733 313.787C251.733 313.787 257.078 335.717 287.776 336.223" stroke="#263238" stroke-linecap="round" stroke-linejoin="round"/>
<path d="M351.732 336.223C351.732 336.223 294.653 391.962 254.219 393.986" stroke="#263238" stroke-linecap="round" stroke-linejoin="round"/>
<path d="M222.211 345.646C222.211 345.646 230.116 363.392 244.542 369.898" stroke="#263238" stroke-linecap="round" stroke-linejoin="round"/>
<path d="M343.067 440.182C343.067 440.182 427.256 454.311 433.316 442.773C433.959 441.485 434.373 440.094 434.536 438.664C436.516 424.744 424.443 397.291 424.443 397.291C415.078 396.398 405.253 398.78 397.392 401.758C391.899 403.688 386.637 406.219 381.701 409.306L382.326 410.675L382.534 411.107L362.868 411.732L345.271 412.298H344.869L343.067 440.182Z" fill="white"/>
<path opacity="0.2" d="M382.312 410.66C401.576 411.032 408.886 413.638 408.886 413.638C405.826 408.99 401.928 404.952 397.393 401.728C391.9 403.658 386.638 406.189 381.701 409.276L382.312 410.66Z" fill="#543BF5"/>
<path opacity="0.2" d="M343.067 440.182C343.067 440.182 427.256 454.311 433.316 442.773C433.959 441.485 434.373 440.094 434.536 438.664C432.463 439.511 430.266 440.014 428.031 440.153C417.014 440.54 361.454 433.676 361.454 433.676L362.853 411.732V411.018C357.523 411.286 351.657 411.687 345.211 412.298H344.809L343.067 440.182Z" fill="#543BF5"/>
<path d="M343.067 440.182C343.067 440.182 427.256 454.311 433.316 442.773C433.959 441.485 434.373 440.094 434.536 438.664C436.516 424.744 424.443 397.291 424.443 397.291C415.078 396.398 405.253 398.78 397.392 401.758C391.899 403.688 386.637 406.219 381.701 409.306L382.326 410.675L382.534 411.107L362.868 411.732L345.271 412.298H344.869L343.067 440.182Z" stroke="#263238" stroke-linecap="round" stroke-linejoin="round"/>
<path d="M382.52 411.092C382.52 411.092 402.409 410.556 410.806 414.442" stroke="#263238" stroke-linecap="round" stroke-linejoin="round"/>
<path d="M317.477 315.217C314.285 320.265 309.79 324.357 304.465 327.061C299.14 329.766 293.184 330.982 287.225 330.581C269.911 329.717 258.075 316.586 258.075 316.586C264.298 311.539 265.221 299.332 264.789 291.277C264.789 291.084 264.789 290.92 264.789 290.741C264.789 290.22 264.715 289.699 264.685 289.253C264.411 285.838 263.879 282.449 263.092 279.114L314.916 281.705C313.014 286.723 311.87 291.996 311.521 297.351C311.389 299.697 311.524 302.049 311.923 304.364V304.587C313.368 312.284 317.477 315.217 317.477 315.217Z" fill="white" stroke="#263238" stroke-miterlimit="10"/>
<path d="M201.636 433.23V438.768C201.636 439.605 201.968 440.408 202.56 441C203.152 441.592 203.955 441.924 204.792 441.924H371.622C372.459 441.924 373.261 441.592 373.853 441C374.445 440.408 374.778 439.605 374.778 438.768V433.23H201.636Z" fill="#757575" stroke="#263238" stroke-linecap="round" stroke-linejoin="round"/>
<path d="M395.263 351.75L373.81 432.024C373.557 432.846 373.123 433.601 372.541 434.235C371.959 434.868 371.243 435.364 370.446 435.686C369.897 435.91 369.311 436.026 368.719 436.029H207.74C207.148 436.026 206.561 435.91 206.013 435.686C205.215 435.364 204.5 434.868 203.918 434.235C203.336 433.601 202.902 432.846 202.648 432.024L181.151 351.75C180.979 351.285 180.926 350.785 180.996 350.294C181.066 349.804 181.258 349.338 181.554 348.941C181.85 348.543 182.24 348.225 182.69 348.017C183.139 347.808 183.634 347.715 184.128 347.745H392.331C392.822 347.722 393.311 347.821 393.754 348.033C394.198 348.245 394.582 348.564 394.872 348.961C395.163 349.357 395.35 349.819 395.419 350.306C395.487 350.793 395.434 351.289 395.263 351.75Z" fill="#BFBFBF" stroke="#263238" stroke-miterlimit="10"/>
<path d="M391.749 355.949L370.401 435.716C369.852 435.939 369.266 436.056 368.674 436.058H207.739C207.147 436.056 206.561 435.939 206.012 435.716L184.649 355.978C184.477 355.513 184.424 355.013 184.494 354.522C184.564 354.032 184.756 353.566 185.052 353.169C185.348 352.771 185.738 352.453 186.188 352.245C186.637 352.036 187.132 351.943 187.626 351.974H388.831C389.318 351.955 389.801 352.056 390.239 352.267C390.677 352.479 391.057 352.795 391.345 353.187C391.633 353.579 391.82 354.036 391.891 354.517C391.961 354.999 391.913 355.49 391.749 355.949Z" fill="#999999" stroke="#263238" stroke-linecap="round" stroke-linejoin="round"/>
<path d="M299.106 400.82C294.341 400.82 290.486 397.962 290.486 394.448C290.491 393.648 290.69 392.861 291.066 392.155C290.123 391.982 289.167 391.892 288.208 391.887C281.538 391.887 276.119 395.892 276.119 400.82C276.119 405.748 281.538 409.753 288.208 409.753C294.877 409.753 300.296 405.763 300.296 400.82C299.909 400.79 299.507 400.82 299.106 400.82Z" fill="#BFBFBF" stroke="#263238" stroke-miterlimit="10"/>
<path d="M314.884 281.69C312.982 286.708 311.838 291.981 311.49 297.337C305.862 302.979 298.969 307.162 291.362 305.971C280.36 304.244 271.204 296.116 264.654 289.238C264.379 285.823 263.847 282.434 263.061 279.099L314.884 281.69Z" fill="#263238"/>
<path d="M325.441 243.965C325.441 243.965 329.624 239.424 331.678 240.913C333.065 242.048 334.112 243.544 334.706 245.235C335.299 246.926 335.416 248.747 335.043 250.5C333.926 254.356 329.088 261.071 328.686 264.986C328.284 268.901 325.798 273.353 323.044 270.762C320.289 268.172 325.441 243.965 325.441 243.965Z" fill="white" stroke="#263238" stroke-miterlimit="10"/>
<path d="M250.973 243.965C250.973 243.965 246.79 239.424 244.736 240.913C243.349 242.048 242.302 243.544 241.708 245.235C241.115 246.926 240.998 248.747 241.371 250.5C242.502 254.356 247.326 261.071 247.728 264.986C248.13 268.901 250.616 273.353 253.37 270.762C256.125 268.172 250.973 243.965 250.973 243.965Z" fill="white" stroke="#263238" stroke-miterlimit="10"/>
<path d="M287.328 191.471C339.881 191.471 327.391 261.443 317.714 283.938C314.319 291.843 296.722 302.19 288.207 302.19C280.286 302.19 262.183 289.818 258.968 282.404C249.186 259.82 237.232 191.471 287.328 191.471Z" fill="white" stroke="#263238" stroke-miterlimit="10"/>
<path d="M296.231 247.314C296.231 247.314 309.63 244.843 314.097 250.128" stroke="#263238" stroke-linecap="round" stroke-linejoin="round"/>
<path d="M306.368 257.408C306.368 259.031 305.55 260.386 304.537 260.386C303.525 260.386 302.706 259.076 302.706 257.408C302.706 255.741 303.525 254.431 304.537 254.431C305.55 254.431 306.368 255.8 306.368 257.408Z" fill="#263238"/>
<path d="M280.181 247.314C280.181 247.314 267.825 246.213 262.316 250.128" stroke="#263238" stroke-linecap="round" stroke-linejoin="round"/>
<path d="M270.044 257.408C270.044 259.031 270.863 260.386 271.875 260.386C272.887 260.386 273.706 259.076 273.706 257.408C273.706 255.741 272.887 254.431 271.875 254.431C270.863 254.431 270.044 255.8 270.044 257.408Z" fill="#263238"/>
<path d="M309.08 209.425C295.911 213.64 281.755 213.64 268.586 209.425C268.586 209.425 261.484 209.023 258.685 212.582C255.887 216.14 258.685 227.157 259.43 231.638C260.174 236.119 253.281 239.23 254.204 250.56L251.539 254.46C251.539 254.46 244.096 236.238 245.986 220.561C247.877 204.885 257.747 198.796 257.747 198.796C257.747 198.796 262.214 185.248 288.714 185.397C317.208 185.516 320.096 200.94 320.096 200.94C320.096 200.94 339.45 213.817 325.128 255.815L322.017 250.604C322.757 245.035 321.479 239.384 318.414 234.675C315.928 231.042 319.903 220.115 318.965 214.517C318.027 208.919 309.08 209.425 309.08 209.425Z" fill="#263238"/>
<path d="M291.333 254.49C291.333 254.49 292.122 266.4 294.445 270.985C296.767 275.571 288.653 276.3 285.185 273.606" stroke="#263238" stroke-linecap="round" stroke-linejoin="round"/>
<path d="M278.099 283.194C278.099 285.01 284.054 287.303 290.009 287.303C295.964 287.303 300.341 284.831 299.462 283.923" stroke="#263238" stroke-linecap="round" stroke-linejoin="round"/>
<path d="M324.815 217.033C324.815 217.033 317.103 227.454 299.596 234.764V229.762C299.596 229.762 283.77 238.903 269.508 237.504L272.738 231.013C272.738 231.013 260.709 243.741 250.541 243.25C240.373 242.759 237.425 185.293 288.713 185.293C330.398 185.293 324.815 217.033 324.815 217.033Z" fill="#263238"/>
<path d="M316.181 220.502C316.181 220.502 313.442 235.702 327.778 246.838C327.778 246.838 336.264 237.697 332.989 220.502C329.714 203.307 322.24 202.771 322.24 202.771L316.181 220.502Z" fill="#263238"/>
<path opacity="0.2" d="M309.794 196.771C309.794 196.771 304.449 219.475 284.798 231.013" stroke="white" stroke-miterlimit="10"/>
<path opacity="0.2" d="M297.288 196.771C297.288 196.771 288.579 219.103 256.198 222.824" stroke="white" stroke-miterlimit="10"/>
<path opacity="0.2" d="M317.477 205.123C317.477 205.123 317.611 216.87 309.795 222.825" stroke="white" stroke-miterlimit="10"/>
<path d="M505.415 29.6734L520.198 1" stroke="#263238" stroke-linecap="round" stroke-linejoin="round"/>
<path d="M520.2 45.231L553.444 25.2817" stroke="#263238" stroke-linecap="round" stroke-linejoin="round"/>
<path d="M533.94 69.1703L562.822 67.3391" stroke="#263238" stroke-linecap="round" stroke-linejoin="round"/>
<path d="M60.4272 465H37.3516V445.214C37.3516 444.342 37.6982 443.505 38.3152 442.888C38.9322 442.271 39.7691 441.924 40.6417 441.924H535.727C536.599 441.924 537.436 442.271 538.053 442.888C538.67 443.505 539.017 444.342 539.017 445.214V465" fill="white"/>
<path d="M60.4273 465H37.3516V445.214C37.3516 444.342 37.6982 443.505 38.3152 442.888C38.9322 442.271 39.7691 441.924 40.6417 441.924H535.727C536.599 441.924 537.436 442.271 538.053 442.888C538.67 443.505 539.017 444.342 539.017 445.214V465" stroke="#263238" stroke-miterlimit="10"/>
<path d="M512.265 465H306.355" stroke="#263238" stroke-miterlimit="10"/>
<path d="M291.615 465H276.816" stroke="#263238" stroke-miterlimit="10"/>
<path d="M181.002 465H72.3379" stroke="#263238" stroke-miterlimit="10"/>
</svg>
