<svg width="80" height="80" viewBox="0 0 80 80" fill="none" xmlns="http://www.w3.org/2000/svg">
<circle cx="40" cy="40" r="40" fill="#EBF0FD"/>
<path d="M25.0938 31.9804C25.2828 31.1337 25.7475 30.3777 26.4117 29.8363C27.076 29.2948 27.9004 28.9999 28.75 29H51.25C52.0996 28.9999 52.924 29.2948 53.5883 29.8363C54.2525 30.3777 54.7172 31.1337 54.9062 31.9804L40 41.2935L25.0938 31.9804ZM25 34.1692V47.7852L35.8806 40.9657L25 34.1692ZM37.6769 42.0908L25.3581 49.8092C25.6625 50.4653 26.1429 51.0195 26.7433 51.4073C27.3438 51.7952 28.0397 52.0007 28.75 52H51.25C51.9602 52.0002 52.6558 51.7942 53.2559 51.406C53.8561 51.0178 54.336 50.4634 54.64 49.8073L42.3212 42.0889L40 43.5398L37.6769 42.0889V42.0908ZM44.1194 40.9677L55 47.7852V34.1692L44.1194 40.9657V40.9677Z" fill="#0D44D1"/>
</svg>
