<svg width="115" height="126" viewBox="0 0 115 126" fill="none" xmlns="http://www.w3.org/2000/svg">
<path d="M36.6143 33.6968C36.8806 28.6355 38.8785 23.8406 43.2739 20.1112C44.6058 18.9125 46.0709 18.2465 47.9356 17.9801C48.8679 17.8469 49.8003 17.9801 50.7326 18.3797C52.8637 19.312 55.1279 19.8448 57.3922 19.8448C59.7897 19.8448 62.054 19.4452 64.3182 18.5129C66.4493 17.5805 68.4472 17.8469 70.3119 18.9125C72.4429 20.1112 74.0412 21.8427 75.3732 23.8406C77.371 26.7708 78.4366 30.1006 78.703 33.6968C78.8362 35.5615 78.5698 37.293 77.9038 39.0245C76.4387 42.3543 73.3753 43.6862 69.9123 42.2211C68.8468 41.6884 67.7812 41.1556 66.8488 40.3564C64.8509 38.4917 62.4535 37.293 59.6565 37.0266C55.5275 36.4938 51.7982 37.5594 48.6016 40.2232C47.2696 41.2888 45.9377 42.2211 44.3394 42.6207C41.5424 43.2866 39.1449 42.2211 37.8129 39.6904C36.8806 37.9589 36.7475 36.0943 36.6143 33.6968ZM49.8002 31.1661C50.4662 31.1661 51.1322 31.1661 51.665 31.1661C52.7305 31.1661 53.5297 30.5002 53.6628 29.4347C53.9292 28.5023 53.3965 27.57 52.5973 27.1704C52.1977 27.0372 51.7981 26.904 51.3986 26.904C50.8658 26.904 50.333 26.904 49.8002 26.904C49.8002 26.5044 49.8002 26.1048 49.8002 25.8385C49.8002 25.4389 49.8002 25.1725 49.8002 24.7729C49.667 23.8406 49.0011 23.1746 48.0688 23.0414C47.2696 22.9082 46.3373 23.3078 45.9377 24.107C45.8045 24.5066 45.6713 24.9061 45.6713 25.3057C45.6713 25.8385 45.6713 26.3713 45.6713 26.904C45.1385 26.904 44.739 26.904 44.3394 26.904C43.9398 26.904 43.6734 26.904 43.2739 27.0372C42.3415 27.3036 41.5424 28.2359 41.6755 29.3015C41.8087 30.5002 42.6079 31.2993 43.8066 31.2993C44.4725 31.2993 45.0054 31.2993 45.6713 31.2993C45.6713 31.9653 45.6713 32.4981 45.6713 33.0308C45.6713 33.83 46.0708 34.6291 46.87 35.0287C48.3351 35.8279 49.9334 34.7623 50.0666 33.0308C49.8003 32.3649 49.8002 31.8321 49.8002 31.1661ZM67.7812 35.1619C68.9799 35.1619 69.9123 34.2296 69.9123 33.0308C69.9123 31.8321 68.9799 30.8998 67.7812 30.8998C66.5825 30.8998 65.6501 31.9653 65.6501 33.0308C65.6501 34.2296 66.5825 35.1619 67.7812 35.1619ZM61.6544 29.0351C61.6544 30.2338 62.5867 31.1661 63.7854 31.1661C64.9842 31.1661 65.9165 30.2338 65.9165 29.0351C65.9165 27.8363 64.9842 26.904 63.7854 26.904C62.5867 26.904 61.6544 27.8363 61.6544 29.0351ZM71.777 26.904C70.5782 26.904 69.6459 27.8363 69.6459 29.0351C69.6459 30.2338 70.5782 31.1661 71.777 31.1661C72.9757 31.1661 73.9081 30.2338 73.9081 29.0351C73.7749 27.8363 72.8425 26.904 71.777 26.904ZM69.9123 25.0393C69.9123 23.8406 68.9799 22.9083 67.7812 22.9083C66.5825 22.9083 65.6501 23.8406 65.6501 25.0393C65.6501 26.238 66.5825 27.1704 67.7812 27.1704C68.8467 27.1704 69.9123 26.238 69.9123 25.0393Z" fill="url(#paint0_linear_276_507)"/>
<path d="M111.735 17.1818C111.202 15.7167 109.87 14.6511 108.405 14.6511H95.7516C94.9524 12.2537 94.0201 9.98941 92.8213 7.85833C91.4894 5.46087 90.0243 3.1966 88.2928 1.06552C87.7601 0.39956 86.8277 0 86.0286 0H76.0391H38.6122H28.6227C27.6904 0 26.8912 0.39956 26.3585 1.06552C24.627 3.1966 23.1618 5.46087 21.8299 7.85833C20.6312 9.98941 19.6988 12.2537 18.8996 14.6511H6.24638C4.78127 14.6511 3.44934 15.7167 2.91657 17.1818C-0.413231 26.3721 -0.146846 36.8942 3.58254 45.9513C5.31403 50.2135 7.8447 54.3424 11.1745 57.5391C14.5043 60.6025 18.3669 62.9999 22.6291 64.7314C26.4917 66.3297 30.6206 67.3953 34.7495 68.0612C36.7474 69.9259 39.0117 71.5242 41.276 72.8562V88.706H47.536V102.558H28.7559V126H86.0286V102.558H66.9821V88.706H73.5085V72.8562C75.7727 71.5242 78.037 69.9259 80.0349 68.0612C88.1596 66.7293 96.018 63.9323 102.278 58.6046C109.604 52.4777 113.333 42.8879 113.999 33.4313C114.398 27.9704 113.599 22.3763 111.735 17.1818ZM13.1724 49.1479C7.8447 41.4228 6.37964 31.4333 8.64391 22.3763H17.035C16.7686 24.241 16.6354 26.1057 16.6354 28.1036C16.6354 38.4926 20.3648 49.6807 26.6249 58.7378C21.164 56.8731 16.2358 53.6765 13.1724 49.1479ZM80.7009 107.753V120.805H33.8172V107.753H80.7009ZM52.5973 102.558V88.706H61.6544V102.558H52.5973ZM68.1808 83.5115H46.3373V75.6532H46.87C50.1998 76.8519 53.6629 77.5179 57.2591 77.5179C60.8553 77.5179 64.3182 76.8519 67.648 75.6532H68.1808V83.5115ZM74.7072 62.4671L74.5741 62.6003C69.5128 66.8625 63.6523 69.6595 57.3922 69.6595C51.1322 69.6595 45.2718 66.9957 40.3436 62.7335C40.2104 62.6003 40.0772 62.4671 39.8108 62.3339C30.4874 54.076 24.3606 40.3573 24.3606 28.2368C24.3606 20.6448 26.758 13.5856 30.8869 7.85833H84.0307C88.1596 13.5856 90.5571 20.6448 90.5571 28.2368C90.4239 40.3573 84.1639 54.2092 74.7072 62.4671ZM101.479 49.1479C98.2822 53.6765 93.3541 56.8731 88.0264 58.871C94.2865 49.8139 98.0159 38.6258 98.0159 28.1036C98.0159 26.1057 97.8827 24.241 97.6163 22.3763H106.007C108.272 31.4333 106.94 41.4228 101.479 49.1479Z" fill="url(#paint1_linear_276_507)"/>
<defs>
<linearGradient id="paint0_linear_276_507" x1="36.6492" y1="30.3613" x2="78.6689" y2="30.3613" gradientUnits="userSpaceOnUse">
<stop stop-color="#78DD3D"/>
<stop offset="1" stop-color="#3AB165"/>
</linearGradient>
<linearGradient id="paint1_linear_276_507" x1="0.505263" y1="62.9635" x2="114.12" y2="62.9635" gradientUnits="userSpaceOnUse">
<stop stop-color="#78DD3D"/>
<stop offset="1" stop-color="#3AB165"/>
</linearGradient>
</defs>
</svg>
