<svg width="106" height="134" viewBox="0 0 106 134" fill="none" xmlns="http://www.w3.org/2000/svg">
<path d="M38.3315 80.378C43.9697 80.6403 50.0014 75.9199 49.608 68.3148C49.2146 62.5454 45.0187 57.825 37.9381 57.825C31.9065 57.825 27.055 62.9387 26.9238 69.2326C26.9238 74.4775 31.382 80.6403 38.3315 80.378ZM38.3315 64.5122C40.9539 64.5122 43.0519 66.7413 43.0519 69.3637C43.0519 71.855 40.8228 74.0841 38.3315 73.953C35.5779 73.8219 33.7422 71.8551 33.8733 69.1015C33.8733 66.2168 35.709 64.3811 38.3315 64.5122Z" fill="url(#paint0_linear_276_459)"/>
<path d="M105.072 104.373C104.81 99.9152 104.285 95.326 103.892 90.8678C103.499 86.0163 103.105 81.1648 102.581 76.3132C102.056 71.0683 101.663 65.8234 101.139 60.4474C100.745 55.727 100.352 50.8755 99.8273 46.1551C99.3028 40.779 98.9094 35.403 98.3849 30.1581C98.3849 29.6336 98.2539 29.1091 98.1227 28.5846C97.5982 26.88 96.4181 26.0933 94.4512 26.0933C94.0579 26.0933 93.5334 26.0933 93.14 26.0933H83.3058C83.3058 28.4535 83.0436 30.6826 82.5191 32.7806H92.091C92.2222 34.2229 92.3533 35.6652 92.4844 37.1076C92.8778 41.5657 93.2712 46.0239 93.6645 50.4821C94.0579 54.8091 94.4513 59.2673 94.8447 63.5943C95.238 67.9214 95.6314 72.3796 96.0247 76.7066C96.4181 80.5091 96.6803 84.4428 97.0737 88.2454C97.4671 92.7035 97.8605 97.1617 98.2538 101.751C98.6472 106.602 98.9095 111.454 99.1717 116.437C99.1717 117.223 99.1716 117.879 99.0405 118.666C98.9094 119.715 98.516 120.633 97.7293 121.419C95.7625 123.911 93.009 125.222 90.2554 126.533C90.1243 126.664 89.862 126.664 89.5998 126.664C65.0799 126.664 40.691 126.664 16.1711 126.664C15.9089 126.664 15.7778 126.664 15.5155 126.664C13.2864 125.615 11.0574 124.697 9.35277 122.993C6.99257 120.764 5.94356 118.01 6.33693 114.732C6.7303 110.667 6.99257 106.603 7.38594 102.669C7.7793 98.2107 8.17266 93.7525 8.56603 89.2943C8.9594 85.3606 9.22163 81.5581 9.61499 77.6245C10.0084 73.2974 10.4017 68.8393 10.7951 64.5122C11.1885 60.7097 11.4507 56.9071 11.8441 53.1045C12.2375 48.6464 12.6308 44.1882 13.0242 39.73C13.1553 37.8943 13.2864 36.0586 13.4175 34.2229C13.5487 33.305 13.5487 33.1739 14.4665 33.1739C16.04 33.0428 17.6135 33.0428 19.187 33.0428C20.4982 33.0428 21.9405 33.0428 23.2517 33.0428C22.7272 30.8137 22.465 28.5846 22.465 26.3555H14.5977C13.5487 26.3555 12.4997 26.3555 11.4507 26.3555C10.0084 26.3555 8.82828 26.6178 7.91042 27.7979C7.77929 28.0602 7.51703 28.3224 7.51703 28.5846C7.25478 31.2071 6.99254 33.6984 6.86141 36.3209C6.33692 41.5658 5.94359 46.8106 5.4191 52.1867C5.02573 56.9071 4.63236 61.7586 4.10787 66.4791C3.58338 71.724 3.19001 76.9689 2.66552 82.2138C2.14103 87.5898 1.74765 92.9657 1.22316 98.2106C0.698671 104.111 0.305312 110.143 0.0430669 116.043C-0.0880557 118.141 0.0430428 120.239 0.9609 122.337C2.66549 126.14 5.5502 128.893 9.09051 130.86C11.713 132.303 14.4665 133.352 17.6135 133.352C19.9737 133.352 22.3339 133.483 24.6941 133.483C44.4936 133.483 64.2931 133.483 84.0926 133.483C86.4528 133.483 88.9441 133.614 91.3043 133.089C96.1559 132.04 100.09 129.549 103.105 125.746C104.941 123.386 106.121 120.633 105.99 117.486C105.597 112.765 105.466 108.569 105.072 104.373Z" fill="url(#paint1_linear_276_459)"/>
<path d="M74.7818 63.9872C75.6997 62.8071 75.4374 61.3648 74.3884 60.3158C73.2083 59.1357 71.766 59.0046 70.5859 59.9224C69.2747 60.9714 68.0946 62.0204 66.9145 63.2005C59.0471 70.9367 51.1798 78.804 43.3124 86.6714C39.3788 90.605 35.7073 94.5387 31.7736 98.4724C31.3803 98.8658 30.9869 99.3903 30.5935 99.7836C29.5446 101.75 31.118 104.242 33.6094 104.504C34.1339 104.242 34.6583 104.111 35.1828 103.717C36.3629 102.799 37.543 101.75 38.592 100.701C49.0818 90.3428 59.5716 79.853 69.9303 69.3632C71.6349 67.6586 73.2083 65.8229 74.7818 63.9872Z" fill="url(#paint2_linear_276_459)"/>
<path d="M67.3105 105.816C73.6044 105.816 78.5871 100.833 78.5871 94.6703C78.5871 88.3765 73.4733 83.1315 67.1794 83.2627C60.4922 83.3938 55.9029 88.7698 56.034 94.4081C56.034 101.095 60.7544 105.947 67.3105 105.816ZM67.4417 89.9499C69.933 89.9499 71.8999 91.9167 71.8999 94.2769C71.8999 97.2927 70.0641 99.3907 67.1794 99.3907C64.6881 99.3907 62.5901 97.2928 62.459 94.6703C62.459 92.4413 64.6881 89.6876 67.4417 89.9499Z" fill="url(#paint3_linear_276_459)"/>
<path d="M52.8848 51.6622C67.1772 51.6622 78.8471 40.1235 78.8471 25.8311C78.8471 11.5388 67.3083 0 53.016 0C38.7236 0 27.1848 11.5388 27.0537 25.8311C27.0537 40.1235 38.5925 51.6622 52.8848 51.6622ZM53.1471 5.11373C64.5547 5.24485 73.7333 14.5546 73.7333 25.9622C73.7333 37.3699 64.2925 46.6796 52.8848 46.5485C41.346 46.5485 32.1675 37.1077 32.1675 25.5689C32.1675 14.2924 41.6083 4.98261 53.1471 5.11373Z" fill="url(#paint4_linear_276_459)"/>
<path d="M44.2321 28.3222C44.6254 28.8467 45.0188 29.5023 45.4122 30.0268C46.0678 30.8136 46.5923 31.7314 47.1168 32.6493C47.6413 33.3049 48.0346 34.0916 48.428 34.8784C49.0836 36.0585 49.8703 37.3697 50.526 38.5498C50.6571 38.812 51.0505 38.812 51.1816 38.5498C51.3127 38.4187 51.3127 38.2876 51.4438 38.1564C51.9683 36.9763 52.4928 35.7962 53.0173 34.6161C53.4107 33.8294 53.804 33.0427 54.1974 32.2559C54.5907 31.3381 54.9841 30.5513 55.5086 29.6335L56.951 26.7488L58.6555 23.3396C59.3111 22.1595 59.8357 21.1105 60.4913 19.9304C61.0158 18.8815 61.6714 17.9635 62.1959 16.9146C62.327 16.6523 62.4581 16.3901 62.7203 16.1279C62.9826 15.7345 63.2448 15.3411 63.5071 14.9477C63.9005 14.4232 64.2938 13.8988 64.6872 13.5054C64.6872 13.3743 64.8183 13.3743 64.8183 13.2432C64.8183 13.2432 64.8183 13.2432 64.8183 13.1121C64.6872 13.1121 64.556 13.112 64.556 13.2432C63.7693 13.8988 62.8515 14.6855 62.0647 15.3412C61.6714 15.6034 61.4091 15.9967 61.0158 16.259C60.7535 16.5212 60.4913 16.7835 60.229 17.0457C59.7045 17.7013 59.18 18.2258 58.6555 18.8814C57.6066 20.1926 56.4265 21.635 55.3775 22.9462C55.2463 23.0774 55.1152 23.3396 54.853 23.4707L53.4106 25.3064C53.2795 25.4376 53.2795 25.4376 53.1484 25.5687L53.0173 25.6998L52.8862 25.9621L52.4928 26.3554C52.2306 26.6176 52.0994 26.8799 51.9683 27.1422L51.7061 27.4044C51.4438 27.7977 51.0504 28.06 50.7882 28.4534C50.5259 28.7157 50.3948 28.8468 50.1326 29.109C50.0014 29.2401 50.0015 29.2401 49.8703 29.109C49.6081 28.9779 49.3458 28.7156 48.9525 28.5845C48.428 28.3223 47.9035 27.9289 47.2479 27.6666C46.1989 27.1421 45.281 26.6176 44.2321 26.0931C43.4453 25.6998 42.7897 25.3064 42.003 25.0442C41.8719 24.9131 41.7408 24.9131 41.4785 24.9131C41.7408 25.1753 42.003 25.4375 42.1341 25.6998C42.9209 26.7488 43.5764 27.5355 44.2321 28.3222Z" fill="url(#paint5_linear_276_459)"/>
<defs>
<linearGradient id="paint0_linear_276_459" x1="26.9984" y1="69.1436" x2="49.6152" y2="69.1436" gradientUnits="userSpaceOnUse">
<stop stop-color="#FFA52E"/>
<stop offset="1" stop-color="#EA4F2C"/>
</linearGradient>
<linearGradient id="paint1_linear_276_459" x1="-0.126477" y1="79.5042" x2="105.797" y2="79.5042" gradientUnits="userSpaceOnUse">
<stop stop-color="#FFA52E"/>
<stop offset="1" stop-color="#EA4F2C"/>
</linearGradient>
<linearGradient id="paint2_linear_276_459" x1="30.3048" y1="81.891" x2="75.2927" y2="81.891" gradientUnits="userSpaceOnUse">
<stop stop-color="#FFA52E"/>
<stop offset="1" stop-color="#EA4F2C"/>
</linearGradient>
<linearGradient id="paint3_linear_276_459" x1="56.0729" y1="94.5789" x2="78.6773" y2="94.5789" gradientUnits="userSpaceOnUse">
<stop stop-color="#FFA52E"/>
<stop offset="1" stop-color="#EA4F2C"/>
</linearGradient>
<linearGradient id="paint4_linear_276_459" x1="27.1051" y1="25.8303" x2="78.7861" y2="25.8303" gradientUnits="userSpaceOnUse">
<stop stop-color="#FFA52E"/>
<stop offset="1" stop-color="#EA4F2C"/>
</linearGradient>
<linearGradient id="paint5_linear_276_459" x1="41.5694" y1="25.9506" x2="64.8381" y2="25.9506" gradientUnits="userSpaceOnUse">
<stop stop-color="#FFA52E"/>
<stop offset="1" stop-color="#EA4F2C"/>
</linearGradient>
</defs>
</svg>
