<svg width="103" height="127" viewBox="0 0 103 127" fill="none" xmlns="http://www.w3.org/2000/svg">
<path d="M51.3262 59.0911C50.1417 57.9066 48.8257 56.5905 47.6412 55.4061C45.2723 53.0372 42.9034 50.6683 40.5345 48.2994C40.2712 48.0361 40.1396 47.6414 40.1396 47.3781C40.1396 45.404 40.1396 43.2983 40.1396 41.3242C40.1396 41.1926 40.1396 40.9294 40.1396 40.7978C42.9034 43.5616 45.6671 46.3253 48.4308 49.089C48.4308 49.089 48.5624 49.089 48.5624 48.9574C48.5624 43.4299 48.5624 37.9025 48.5624 32.375C50.4049 32.375 52.1158 32.375 53.9583 32.375C53.9583 37.9025 53.9583 43.4299 53.9583 48.9574C56.8536 46.0621 59.4857 43.4299 62.2495 40.6662C62.2495 40.6662 62.3811 40.6662 62.3811 40.7978C62.3811 41.1926 62.3811 41.7191 62.3811 42.1139C62.3811 43.9564 62.3811 45.6672 62.3811 47.5097C62.3811 47.7729 62.2495 48.0361 62.1179 48.2994C58.5645 51.8527 55.0112 55.4061 51.4578 58.9595C51.4578 58.9595 51.4578 59.0911 51.3262 59.0911Z" fill="url(#paint0_linear_276_512)"/>
<path d="M93.4404 127C65.2767 127 37.2445 127 9.08082 127C3.94818 125.421 0.921243 122.131 0 116.866C0 81.3326 0 45.7989 0 10.1337C1.05285 4.7378 4.34299 1.31606 9.60724 0C31.3223 0 52.9057 0 74.6207 0C75.6736 0.789637 76.7264 1.57927 77.6477 2.50051C85.1492 10.0021 92.6507 17.5036 100.152 25.0052C101.074 25.9264 101.732 26.9793 102.521 27.9005C102.521 57.9067 102.521 87.913 102.521 117.788C101.337 122.657 98.3098 125.684 93.4404 127ZM95.1513 32.5067C88.0445 32.5067 81.201 32.5067 74.4891 32.5067C71.4621 32.5067 70.1461 31.1907 70.1461 28.1637C70.1461 24.742 70.1461 21.1886 70.1461 17.7668C70.1461 14.4767 70.1461 11.0549 70.1461 7.50153C68.83 7.50153 67.9088 7.50153 66.9875 7.50153C48.8259 7.50153 30.7959 7.50153 12.6342 7.50153C8.4228 7.50153 7.63314 8.29119 7.63314 12.5026C7.63314 46.3254 7.63314 80.2798 7.63314 114.103C7.63314 118.577 8.42278 119.367 12.8974 119.367C38.429 119.367 64.0922 119.367 89.6238 119.367C94.3616 119.367 95.1513 118.577 95.1513 113.971C95.1513 87.7813 95.1513 61.5917 95.1513 35.5337C95.1513 34.744 95.1513 33.8228 95.1513 32.5067ZM77.6477 13.8187C77.6477 17.372 77.6477 21.1886 77.6477 25.1368C81.5958 25.1368 85.4124 25.1368 88.9658 25.1368C85.1492 21.3202 81.3326 17.5036 77.6477 13.8187Z" fill="url(#paint1_linear_276_512)"/>
<path d="M18.9541 70.2781V75.2791V78.0428C19.8753 78.306 20.7966 78.5692 21.7178 79.0957C24.8764 80.8065 26.8505 84.2283 26.8505 87.9133C26.8505 91.7299 24.7448 95.0201 21.7178 96.7309C20.9282 97.2574 20.007 97.5206 18.9541 97.7838V100.547V105.549H85.1521V100.679V97.9153C84.2308 97.7837 83.3095 97.389 82.3883 96.9942C79.0981 95.2833 76.7292 91.8615 76.7292 87.9133C76.7292 83.9651 78.9665 80.4118 82.3883 78.8325C83.3095 78.4377 84.2308 78.0428 85.1521 77.9112V75.1475V70.2781H18.9541ZM82.3883 75.9371C77.5188 77.7796 73.9655 82.5174 73.9655 88.0449C73.9655 93.5723 77.5188 98.3102 82.3883 100.153V103.048H21.7178V100.021C26.3241 98.047 29.6142 93.4407 29.6142 88.0449C29.6142 82.649 26.3241 78.0428 21.7178 76.0687V73.0418H82.3883V75.9371Z" fill="url(#paint2_linear_276_512)"/>
<path d="M66.8575 78.4375H37.2461V81.2013H66.8575V78.4375Z" fill="url(#paint3_linear_276_512)"/>
<path d="M66.9893 94.8882H37.3779V97.652H66.9893V94.8882Z" fill="url(#paint4_linear_276_512)"/>
<path d="M70.4113 86.7288H33.5615V89.4925H70.4113V86.7288Z" fill="url(#paint5_linear_276_512)"/>
<defs>
<linearGradient id="paint0_linear_276_512" x1="40.1374" y1="45.7373" x2="62.5149" y2="45.7373" gradientUnits="userSpaceOnUse">
<stop stop-color="#00FDEC"/>
<stop offset="1" stop-color="#00BABB"/>
</linearGradient>
<linearGradient id="paint1_linear_276_512" x1="0.0121078" y1="63.5184" x2="102.642" y2="63.5184" gradientUnits="userSpaceOnUse">
<stop stop-color="#00FDEC"/>
<stop offset="1" stop-color="#00BABB"/>
</linearGradient>
<linearGradient id="paint2_linear_276_512" x1="18.9176" y1="88.0462" x2="85.1156" y2="88.0462" gradientUnits="userSpaceOnUse">
<stop stop-color="#00FDEC"/>
<stop offset="1" stop-color="#00BABB"/>
</linearGradient>
<linearGradient id="paint3_linear_276_512" x1="37.1881" y1="79.7719" x2="66.8427" y2="79.7719" gradientUnits="userSpaceOnUse">
<stop stop-color="#00FDEC"/>
<stop offset="1" stop-color="#00BABB"/>
</linearGradient>
<linearGradient id="paint4_linear_276_512" x1="37.4143" y1="96.3202" x2="67.0689" y2="96.3202" gradientUnits="userSpaceOnUse">
<stop stop-color="#00FDEC"/>
<stop offset="1" stop-color="#00BABB"/>
</linearGradient>
<linearGradient id="paint5_linear_276_512" x1="33.6121" y1="88.0527" x2="70.4194" y2="88.0527" gradientUnits="userSpaceOnUse">
<stop stop-color="#00FDEC"/>
<stop offset="1" stop-color="#00BABB"/>
</linearGradient>
</defs>
</svg>
