<svg width="118" height="99" viewBox="0 0 118 99" fill="none" xmlns="http://www.w3.org/2000/svg">
<path d="M101.445 37.8393C101.311 35.5642 98.7687 34.092 96.7612 35.2965C96.092 35.698 95.5567 36.3672 94.8876 36.9025C88.7313 43.0588 82.4412 49.215 76.285 55.5051C75.8835 55.9066 75.482 56.4419 75.3482 56.9772C74.9467 58.3155 75.6158 59.7877 76.8203 60.4569C78.0248 61.126 79.497 60.8583 80.5676 59.9215C83.9134 56.5757 87.1254 53.3638 90.4711 50.018C93.8169 46.6722 97.0289 43.4603 100.375 40.1145C101.178 39.5791 101.445 38.7761 101.445 37.8393Z" fill="url(#paint0_linear_276_481)"/>
<path d="M83.3769 43.0588C85.5182 40.9175 85.5182 37.5717 83.3769 35.4304C81.2356 33.2891 77.8899 33.2891 75.7486 35.4304C73.6073 37.5717 73.6073 40.9175 75.7486 43.0588C77.8899 45.0663 81.3694 45.2001 83.3769 43.0588Z" fill="url(#paint1_linear_276_481)"/>
<path d="M100.909 52.9622C98.7678 50.8209 95.422 50.8209 93.4146 52.8283C91.2733 54.9696 91.2733 58.3154 93.4146 60.4567C95.5559 62.598 98.9017 62.598 101.043 60.4567C103.05 58.4493 103.05 55.1035 100.909 52.9622Z" fill="url(#paint2_linear_276_481)"/>
<path d="M21.8145 68.7541C19.2717 68.7541 17.1304 68.7541 14.8553 68.7541C12.3125 68.7541 11.2418 67.6835 11.108 65.0068C11.108 63.8023 11.108 62.464 11.108 60.858C8.69904 60.858 6.42391 60.858 4.14878 60.858C1.07066 60.7242 0 59.6535 0 56.5754C0 50.4192 0 44.263 0 38.1067C0 34.8948 1.07065 33.8241 4.41644 33.8241C6.55774 33.8241 8.69904 33.8241 11.108 33.8241C11.108 32.3519 11.108 31.0137 11.108 29.8092C11.2418 27.1325 12.3125 25.9281 14.9891 25.9281C17.9334 25.7942 21.0115 25.9281 23.9558 25.9281C33.4578 25.9281 42.826 26.0619 52.3281 25.9281C54.3355 25.9281 56.343 25.5266 58.0828 24.7236C75.4809 16.9614 93.0128 9.19914 110.411 1.30308C111.214 0.901591 112.017 0.500093 112.82 0.23243C115.229 -0.570558 117.236 0.767759 117.37 3.31056C117.37 3.84588 117.37 4.38121 117.37 5.05037C117.37 33.155 117.37 61.2595 117.37 89.3641C117.37 94.0482 115.496 95.2527 111.08 93.3791C93.9496 86.0183 76.8192 78.7914 59.6888 71.4307C59.1535 71.1631 58.4843 71.0292 57.6813 70.7616C55.0047 77.3193 52.3281 83.8771 49.7853 90.301C48.9823 92.3084 48.0455 94.3159 47.3763 96.3234C46.7071 98.0632 45.5027 99 43.4952 99C37.4728 99 31.5842 99 25.5618 99C22.8852 99 21.8145 97.7955 21.8145 95.1189C21.8145 87.2228 21.8145 79.4606 21.8145 71.5646C21.8145 70.6277 21.8145 69.8247 21.8145 68.7541ZM110.411 85.483C110.411 59.7874 110.411 34.3594 110.411 8.79765C110.009 8.93148 109.742 8.93148 109.608 9.06531C93.4143 16.2922 77.2207 23.5191 61.0271 30.746C59.6888 31.4151 59.6888 32.352 59.6888 33.4226C59.6888 42.9246 59.6888 52.2929 59.6888 61.7949C59.6888 63.4009 60.2241 64.2038 61.6963 64.873C75.8824 70.8954 90.0685 76.9178 104.121 82.9402C106.128 83.7432 108.27 84.5462 110.411 85.483ZM18.0672 61.7949C29.7106 61.7949 41.2201 61.7949 52.7296 61.7949C52.7296 52.0252 52.7296 42.5232 52.7296 32.7535C41.0862 32.7535 29.7106 32.7535 18.0672 32.7535C18.0672 42.5232 18.0672 52.0252 18.0672 61.7949ZM28.7737 68.8879C28.7737 76.784 28.7737 84.2785 28.7737 92.1746C32.521 92.1746 36.1345 92.1746 39.7479 92.1746C41.2201 92.1746 41.8892 91.7731 42.4245 90.4348C45.1012 83.7432 47.9116 77.0516 50.5883 70.2262C50.7221 69.8248 50.7221 69.4233 50.8559 68.8879C43.4952 68.8879 36.2683 68.8879 28.7737 68.8879ZM6.95923 54.0326C8.43137 54.0326 9.63585 54.0326 10.9742 54.0326C10.9742 49.6162 10.9742 45.1998 10.9742 40.7833C9.63585 40.7833 8.29754 40.7833 6.95923 40.7833C6.95923 45.1998 6.95923 49.4824 6.95923 54.0326Z" fill="url(#paint3_linear_276_481)"/>
<defs>
<linearGradient id="paint0_linear_276_481" x1="75.3463" y1="47.9823" x2="101.444" y2="47.9823" gradientUnits="userSpaceOnUse">
<stop stop-color="#411DEF"/>
<stop offset="1" stop-color="#7F1AD8"/>
</linearGradient>
<linearGradient id="paint1_linear_276_481" x1="74.2723" y1="39.2358" x2="85.0242" y2="39.2358" gradientUnits="userSpaceOnUse">
<stop stop-color="#411DEF"/>
<stop offset="1" stop-color="#7F1AD8"/>
</linearGradient>
<linearGradient id="paint2_linear_276_481" x1="91.7634" y1="56.7305" x2="102.519" y2="56.7305" gradientUnits="userSpaceOnUse">
<stop stop-color="#411DEF"/>
<stop offset="1" stop-color="#7F1AD8"/>
</linearGradient>
<linearGradient id="paint3_linear_276_481" x1="0.0219483" y1="49.3965" x2="117.414" y2="49.3965" gradientUnits="userSpaceOnUse">
<stop stop-color="#411DEF"/>
<stop offset="1" stop-color="#7F1AD8"/>
</linearGradient>
</defs>
</svg>
