<svg width="103" height="138" viewBox="0 0 103 138" fill="none" xmlns="http://www.w3.org/2000/svg">
<path opacity="0.6" d="M102.82 40.5596C102.82 37.2475 101.092 33.2153 98.7878 30.6232C90.4355 21.5509 81.6511 12.7665 72.5788 4.55822C69.9867 2.11013 65.8106 0.382059 62.2104 0.238054C46.5138 -0.193963 30.8172 0.0940391 15.1206 0.0940391C4.89619 0.0940391 0 4.99024 0 15.0706C0 32.9273 0 50.784 0 68.6407C0 86.6414 0 104.786 0 122.787C0 132.291 5.04022 137.187 14.6886 137.331C39.3136 137.331 63.9385 137.331 88.7074 137.331C97.9238 137.331 102.964 132.147 102.964 123.075C102.964 95.5697 103.108 68.0647 102.82 40.5596ZM68.6907 13.9186C75.459 20.8309 82.2272 27.4551 88.8515 34.2234C84.2433 34.2234 78.9151 34.7994 73.8749 33.9354C71.8588 33.6473 69.2667 30.3352 68.8347 28.0311C68.2587 23.279 68.6907 18.5268 68.6907 13.9186ZM94.4677 48.1919C94.4677 72.5289 94.4677 96.7218 94.4677 121.059C94.4677 127.971 93.7477 128.691 86.6914 128.691C63.0745 128.691 39.4575 128.691 15.9846 128.691C9.50434 128.691 8.64034 127.971 8.64034 121.203C8.64034 86.2094 8.64034 51.216 8.64034 16.0787C8.64034 9.31041 9.36037 8.59038 15.8406 8.59038C30.2412 8.59038 44.7858 8.59038 60.0504 8.59038C60.0504 14.9266 60.0504 20.5428 60.0504 26.1591C60.1944 36.3835 66.5305 42.7197 76.899 42.8637C82.3712 42.8637 87.9874 42.8637 94.3237 42.8637C94.4677 44.8798 94.4677 46.6079 94.4677 48.1919Z" fill="url(#paint0_linear_276_495)"/>
<path opacity="0.6" d="M51.5545 50.6404C36.722 50.6404 24.7695 62.7369 24.7695 77.4254C24.7695 92.258 36.866 104.21 51.5545 104.21C66.3871 104.21 78.3396 92.114 78.3396 77.4254C78.3396 62.5929 66.2431 50.6404 51.5545 50.6404ZM29.5217 77.4254C29.5217 65.329 39.3141 55.5366 51.4106 55.5366C56.7388 55.5366 61.779 57.5526 65.5231 60.7208L34.5619 91.682C31.5378 87.7938 29.5217 82.7536 29.5217 77.4254ZM51.5545 99.3143C46.6584 99.3143 42.0502 97.7302 38.306 94.8501L68.9792 64.1769C71.7153 67.921 73.4434 72.3852 73.4434 77.4254C73.4434 89.5219 63.651 99.3143 51.5545 99.3143Z" fill="url(#paint1_linear_276_495)"/>
<defs>
<linearGradient id="paint0_linear_276_495" x1="-14.5572" y1="26.352" x2="106.689" y2="124.535" gradientUnits="userSpaceOnUse">
<stop stop-color="#0E62DD"/>
<stop offset="1" stop-color="#F20A27"/>
</linearGradient>
<linearGradient id="paint1_linear_276_495" x1="30.6896" y1="60.5572" x2="72.3576" y2="94.2992" gradientUnits="userSpaceOnUse">
<stop stop-color="#0E62DD"/>
<stop offset="1" stop-color="#F20A27"/>
</linearGradient>
</defs>
</svg>
